<?xml version="1.0" encoding="utf-8" standalone="no"?>
<!DOCTYPE svg PUBLIC "-//W3C//DTD SVG 1.1//EN"
  "http://www.w3.org/Graphics/SVG/1.1/DTD/svg11.dtd">
<!-- Created with matplotlib (https://matplotlib.org/) -->
<svg height="588.434375pt" version="1.1" viewBox="0 0 395.40625 588.434375" width="395.40625pt" xmlns="http://www.w3.org/2000/svg" xmlns:xlink="http://www.w3.org/1999/xlink">
 <metadata>
  <rdf:RDF xmlns:cc="http://creativecommons.org/ns#" xmlns:dc="http://purl.org/dc/elements/1.1/" xmlns:rdf="http://www.w3.org/1999/02/22-rdf-syntax-ns#">
   <cc:Work>
    <dc:type rdf:resource="http://purl.org/dc/dcmitype/StillImage"/>
    <dc:date>2020-09-22T18:37:13.876710</dc:date>
    <dc:format>image/svg+xml</dc:format>
    <dc:creator>
     <cc:Agent>
      <dc:title>Matplotlib v3.3.1, https://matplotlib.org/</dc:title>
     </cc:Agent>
    </dc:creator>
   </cc:Work>
  </rdf:RDF>
 </metadata>
 <defs>
  <style type="text/css">*{stroke-linecap:butt;stroke-linejoin:round;}</style>
 </defs>
 <g id="figure_1">
  <g id="patch_1">
   <path d="M 0 588.434375 
L 395.40625 588.434375 
L 395.40625 -0 
L 0 -0 
z
" style="fill:none;"/>
  </g>
  <g id="axes_1">
   <g id="patch_2">
    <path d="M 53.40625 167.082353 
L 388.20625 167.082353 
L 388.20625 7.2 
L 53.40625 7.2 
z
" style="fill:#ffffff;"/>
   </g>
   <g id="patch_3">
    <path clip-path="url(#p7ff6500c5b)" d="M 68.624432 167.082353 
L 84.643571 167.082353 
L 84.643571 14.813445 
L 68.624432 14.813445 
z
" style="fill:#45d281;opacity:0.8;"/>
   </g>
   <g id="patch_4">
    <path clip-path="url(#p7ff6500c5b)" d="M 84.643571 167.082353 
L 100.662709 167.082353 
L 100.662709 107.260263 
L 84.643571 107.260263 
z
" style="fill:#45d281;opacity:0.8;"/>
   </g>
   <g id="patch_5">
    <path clip-path="url(#p7ff6500c5b)" d="M 100.662709 167.082353 
L 116.681848 167.082353 
L 116.681848 138.55337 
L 100.662709 138.55337 
z
" style="fill:#45d281;opacity:0.8;"/>
   </g>
   <g id="patch_6">
    <path clip-path="url(#p7ff6500c5b)" d="M 116.681848 167.082353 
L 132.700987 167.082353 
L 132.700987 155.622337 
L 116.681848 155.622337 
z
" style="fill:#45d281;opacity:0.8;"/>
   </g>
   <g id="patch_7">
    <path clip-path="url(#p7ff6500c5b)" d="M 132.700987 167.082353 
L 148.720126 167.082353 
L 148.720126 162.219917 
L 132.700987 162.219917 
z
" style="fill:#45d281;opacity:0.8;"/>
   </g>
   <g id="patch_8">
    <path clip-path="url(#p7ff6500c5b)" d="M 148.720126 167.082353 
L 164.739264 167.082353 
L 164.739264 166.073549 
L 148.720126 166.073549 
z
" style="fill:#45d281;opacity:0.8;"/>
   </g>
   <g id="patch_9">
    <path clip-path="url(#p7ff6500c5b)" d="M 164.739264 167.082353 
L 180.758403 167.082353 
L 180.758403 157.478537 
L 164.739264 157.478537 
z
" style="fill:#45d281;opacity:0.8;"/>
   </g>
   <g id="patch_10">
    <path clip-path="url(#p7ff6500c5b)" d="M 180.758403 167.082353 
L 196.777542 167.082353 
L 196.777542 90.655346 
L 180.758403 90.655346 
z
" style="fill:#45d281;opacity:0.8;"/>
   </g>
   <g id="patch_11">
    <path clip-path="url(#p7ff6500c5b)" d="M 196.777542 167.082353 
L 212.796681 167.082353 
L 212.796681 94.872148 
L 196.777542 94.872148 
z
" style="fill:#45d281;opacity:0.8;"/>
   </g>
   <g id="patch_12">
    <path clip-path="url(#p7ff6500c5b)" d="M 212.796681 167.082353 
L 228.815819 167.082353 
L 228.815819 127.759165 
L 212.796681 127.759165 
z
" style="fill:#45d281;opacity:0.8;"/>
   </g>
   <g id="patch_13">
    <path clip-path="url(#p7ff6500c5b)" d="M 228.815819 167.082353 
L 244.834958 167.082353 
L 244.834958 144.707076 
L 228.815819 144.707076 
z
" style="fill:#45d281;opacity:0.8;"/>
   </g>
   <g id="patch_14">
    <path clip-path="url(#p7ff6500c5b)" d="M 244.834958 167.082353 
L 260.854097 167.082353 
L 260.854097 154.310892 
L 244.834958 154.310892 
z
" style="fill:#45d281;opacity:0.8;"/>
   </g>
   <g id="patch_15">
    <path clip-path="url(#p7ff6500c5b)" d="M 260.854097 167.082353 
L 276.873236 167.082353 
L 276.873236 159.052271 
L 260.854097 159.052271 
z
" style="fill:#45d281;opacity:0.8;"/>
   </g>
   <g id="patch_16">
    <path clip-path="url(#p7ff6500c5b)" d="M 276.873236 167.082353 
L 292.892374 167.082353 
L 292.892374 160.444421 
L 276.873236 160.444421 
z
" style="fill:#45d281;opacity:0.8;"/>
   </g>
   <g id="patch_17">
    <path clip-path="url(#p7ff6500c5b)" d="M 292.892374 167.082353 
L 308.911513 167.082353 
L 308.911513 163.067312 
L 292.892374 163.067312 
z
" style="fill:#45d281;opacity:0.8;"/>
   </g>
   <g id="patch_18">
    <path clip-path="url(#p7ff6500c5b)" d="M 308.911513 167.082353 
L 324.930652 167.082353 
L 324.930652 153.019622 
L 308.911513 153.019622 
z
" style="fill:#45d281;opacity:0.8;"/>
   </g>
   <g id="patch_19">
    <path clip-path="url(#p7ff6500c5b)" d="M 324.930652 167.082353 
L 340.949791 167.082353 
L 340.949791 111.477065 
L 324.930652 111.477065 
z
" style="fill:#45d281;opacity:0.8;"/>
   </g>
   <g id="patch_20">
    <path clip-path="url(#p7ff6500c5b)" d="M 340.949791 167.082353 
L 356.968929 167.082353 
L 356.968929 143.7588 
L 340.949791 143.7588 
z
" style="fill:#45d281;opacity:0.8;"/>
   </g>
   <g id="patch_21">
    <path clip-path="url(#p7ff6500c5b)" d="M 356.968929 167.082353 
L 372.988068 167.082353 
L 372.988068 159.153152 
L 356.968929 159.153152 
z
" style="fill:#45d281;opacity:0.8;"/>
   </g>
   <g id="patch_22">
    <path clip-path="url(#p7ff6500c5b)" d="M 68.624432 167.082353 
L 84.643571 167.082353 
L 84.643571 156.570613 
L 68.624432 156.570613 
z
" style="fill:#004a9c;opacity:0.6;"/>
   </g>
   <g id="patch_23">
    <path clip-path="url(#p7ff6500c5b)" d="M 84.643571 167.082353 
L 100.662709 167.082353 
L 100.662709 162.038332 
L 84.643571 162.038332 
z
" style="fill:#004a9c;opacity:0.6;"/>
   </g>
   <g id="patch_24">
    <path clip-path="url(#p7ff6500c5b)" d="M 100.662709 167.082353 
L 116.681848 167.082353 
L 116.681848 165.246329 
L 100.662709 165.246329 
z
" style="fill:#004a9c;opacity:0.6;"/>
   </g>
   <g id="patch_25">
    <path clip-path="url(#p7ff6500c5b)" d="M 116.681848 167.082353 
L 132.700987 167.082353 
L 132.700987 166.517423 
L 116.681848 166.517423 
z
" style="fill:#004a9c;opacity:0.6;"/>
   </g>
   <g id="patch_26">
    <path clip-path="url(#p7ff6500c5b)" d="M 132.700987 167.082353 
L 148.720126 167.082353 
L 148.720126 166.961296 
L 132.700987 166.961296 
z
" style="fill:#004a9c;opacity:0.6;"/>
   </g>
   <g id="patch_27">
    <path clip-path="url(#p7ff6500c5b)" d="M 148.720126 167.082353 
L 164.739264 167.082353 
L 164.739264 167.042001 
L 148.720126 167.042001 
z
" style="fill:#004a9c;opacity:0.6;"/>
   </g>
   <g id="patch_28">
    <path clip-path="url(#p7ff6500c5b)" d="M 164.739264 167.082353 
L 180.758403 167.082353 
L 180.758403 166.557775 
L 164.739264 166.557775 
z
" style="fill:#004a9c;opacity:0.6;"/>
   </g>
   <g id="patch_29">
    <path clip-path="url(#p7ff6500c5b)" d="M 180.758403 167.082353 
L 196.777542 167.082353 
L 196.777542 165.306858 
L 180.758403 165.306858 
z
" style="fill:#004a9c;opacity:0.6;"/>
   </g>
   <g id="patch_30">
    <path clip-path="url(#p7ff6500c5b)" d="M 196.777542 167.082353 
L 212.796681 167.082353 
L 212.796681 164.923512 
L 196.777542 164.923512 
z
" style="fill:#004a9c;opacity:0.6;"/>
   </g>
   <g id="patch_31">
    <path clip-path="url(#p7ff6500c5b)" d="M 212.796681 167.082353 
L 228.815819 167.082353 
L 228.815819 163.39013 
L 212.796681 163.39013 
z
" style="fill:#004a9c;opacity:0.6;"/>
   </g>
   <g id="patch_32">
    <path clip-path="url(#p7ff6500c5b)" d="M 228.815819 167.082353 
L 244.834958 167.082353 
L 244.834958 162.280445 
L 228.815819 162.280445 
z
" style="fill:#004a9c;opacity:0.6;"/>
   </g>
   <g id="patch_33">
    <path clip-path="url(#p7ff6500c5b)" d="M 244.834958 167.082353 
L 260.854097 167.082353 
L 260.854097 161.937451 
L 244.834958 161.937451 
z
" style="fill:#004a9c;opacity:0.6;"/>
   </g>
   <g id="patch_34">
    <path clip-path="url(#p7ff6500c5b)" d="M 260.854097 167.082353 
L 276.873236 167.082353 
L 276.873236 164.257701 
L 260.854097 164.257701 
z
" style="fill:#004a9c;opacity:0.6;"/>
   </g>
   <g id="patch_35">
    <path clip-path="url(#p7ff6500c5b)" d="M 276.873236 167.082353 
L 292.892374 167.082353 
L 292.892374 165.750731 
L 276.873236 165.750731 
z
" style="fill:#004a9c;opacity:0.6;"/>
   </g>
   <g id="patch_36">
    <path clip-path="url(#p7ff6500c5b)" d="M 292.892374 167.082353 
L 308.911513 167.082353 
L 308.911513 163.632243 
L 292.892374 163.632243 
z
" style="fill:#004a9c;opacity:0.6;"/>
   </g>
   <g id="patch_37">
    <path clip-path="url(#p7ff6500c5b)" d="M 308.911513 167.082353 
L 324.930652 167.082353 
L 324.930652 136.959459 
L 308.911513 136.959459 
z
" style="fill:#004a9c;opacity:0.6;"/>
   </g>
   <g id="patch_38">
    <path clip-path="url(#p7ff6500c5b)" d="M 324.930652 167.082353 
L 340.949791 167.082353 
L 340.949791 102.236418 
L 324.930652 102.236418 
z
" style="fill:#004a9c;opacity:0.6;"/>
   </g>
   <g id="patch_39">
    <path clip-path="url(#p7ff6500c5b)" d="M 340.949791 167.082353 
L 356.968929 167.082353 
L 356.968929 118.316757 
L 340.949791 118.316757 
z
" style="fill:#004a9c;opacity:0.6;"/>
   </g>
   <g id="patch_40">
    <path clip-path="url(#p7ff6500c5b)" d="M 356.968929 167.082353 
L 372.988068 167.082353 
L 372.988068 150.517788 
L 356.968929 150.517788 
z
" style="fill:#004a9c;opacity:0.6;"/>
   </g>
   <g id="matplotlib.axis_1">
    <g id="xtick_1">
     <g id="line2d_1">
      <defs>
       <path d="M 0 0 
L 0 3.5 
" id="m752dd69966" style="stroke:#000000;stroke-width:0.8;"/>
      </defs>
      <g>
       <use style="stroke:#000000;stroke-width:0.8;" x="68.624432" xlink:href="#m752dd69966" y="167.082353"/>
      </g>
     </g>
     <g id="text_1">
      <!-- 0.0 -->
      <g transform="translate(60.672869 181.68079)scale(0.1 -0.1)">
       <defs>
        <path d="M 31.78125 66.40625 
Q 24.171875 66.40625 20.328125 58.90625 
Q 16.5 51.421875 16.5 36.375 
Q 16.5 21.390625 20.328125 13.890625 
Q 24.171875 6.390625 31.78125 6.390625 
Q 39.453125 6.390625 43.28125 13.890625 
Q 47.125 21.390625 47.125 36.375 
Q 47.125 51.421875 43.28125 58.90625 
Q 39.453125 66.40625 31.78125 66.40625 
z
M 31.78125 74.21875 
Q 44.046875 74.21875 50.515625 64.515625 
Q 56.984375 54.828125 56.984375 36.375 
Q 56.984375 17.96875 50.515625 8.265625 
Q 44.046875 -1.421875 31.78125 -1.421875 
Q 19.53125 -1.421875 13.0625 8.265625 
Q 6.59375 17.96875 6.59375 36.375 
Q 6.59375 54.828125 13.0625 64.515625 
Q 19.53125 74.21875 31.78125 74.21875 
z
" id="DejaVuSans-48"/>
        <path d="M 10.6875 12.40625 
L 21 12.40625 
L 21 0 
L 10.6875 0 
z
" id="DejaVuSans-46"/>
       </defs>
       <use xlink:href="#DejaVuSans-48"/>
       <use x="63.623047" xlink:href="#DejaVuSans-46"/>
       <use x="95.410156" xlink:href="#DejaVuSans-48"/>
      </g>
     </g>
    </g>
    <g id="xtick_2">
     <g id="line2d_2">
      <g>
       <use style="stroke:#000000;stroke-width:0.8;" x="108.672279" xlink:href="#m752dd69966" y="167.082353"/>
      </g>
     </g>
     <g id="text_2">
      <!-- 2.5 -->
      <g transform="translate(100.720716 181.68079)scale(0.1 -0.1)">
       <defs>
        <path d="M 19.1875 8.296875 
L 53.609375 8.296875 
L 53.609375 0 
L 7.328125 0 
L 7.328125 8.296875 
Q 12.9375 14.109375 22.625 23.890625 
Q 32.328125 33.6875 34.8125 36.53125 
Q 39.546875 41.84375 41.421875 45.53125 
Q 43.3125 49.21875 43.3125 52.78125 
Q 43.3125 58.59375 39.234375 62.25 
Q 35.15625 65.921875 28.609375 65.921875 
Q 23.96875 65.921875 18.8125 64.3125 
Q 13.671875 62.703125 7.8125 59.421875 
L 7.8125 69.390625 
Q 13.765625 71.78125 18.9375 73 
Q 24.125 74.21875 28.421875 74.21875 
Q 39.75 74.21875 46.484375 68.546875 
Q 53.21875 62.890625 53.21875 53.421875 
Q 53.21875 48.921875 51.53125 44.890625 
Q 49.859375 40.875 45.40625 35.40625 
Q 44.1875 33.984375 37.640625 27.21875 
Q 31.109375 20.453125 19.1875 8.296875 
z
" id="DejaVuSans-50"/>
        <path d="M 10.796875 72.90625 
L 49.515625 72.90625 
L 49.515625 64.59375 
L 19.828125 64.59375 
L 19.828125 46.734375 
Q 21.96875 47.46875 24.109375 47.828125 
Q 26.265625 48.1875 28.421875 48.1875 
Q 40.625 48.1875 47.75 41.5 
Q 54.890625 34.8125 54.890625 23.390625 
Q 54.890625 11.625 47.5625 5.09375 
Q 40.234375 -1.421875 26.90625 -1.421875 
Q 22.3125 -1.421875 17.546875 -0.640625 
Q 12.796875 0.140625 7.71875 1.703125 
L 7.71875 11.625 
Q 12.109375 9.234375 16.796875 8.0625 
Q 21.484375 6.890625 26.703125 6.890625 
Q 35.15625 6.890625 40.078125 11.328125 
Q 45.015625 15.765625 45.015625 23.390625 
Q 45.015625 31 40.078125 35.4375 
Q 35.15625 39.890625 26.703125 39.890625 
Q 22.75 39.890625 18.8125 39.015625 
Q 14.890625 38.140625 10.796875 36.28125 
z
" id="DejaVuSans-53"/>
       </defs>
       <use xlink:href="#DejaVuSans-50"/>
       <use x="63.623047" xlink:href="#DejaVuSans-46"/>
       <use x="95.410156" xlink:href="#DejaVuSans-53"/>
      </g>
     </g>
    </g>
    <g id="xtick_3">
     <g id="line2d_3">
      <g>
       <use style="stroke:#000000;stroke-width:0.8;" x="148.720126" xlink:href="#m752dd69966" y="167.082353"/>
      </g>
     </g>
     <g id="text_3">
      <!-- 5.0 -->
      <g transform="translate(140.768563 181.68079)scale(0.1 -0.1)">
       <use xlink:href="#DejaVuSans-53"/>
       <use x="63.623047" xlink:href="#DejaVuSans-46"/>
       <use x="95.410156" xlink:href="#DejaVuSans-48"/>
      </g>
     </g>
    </g>
    <g id="xtick_4">
     <g id="line2d_4">
      <g>
       <use style="stroke:#000000;stroke-width:0.8;" x="188.767972" xlink:href="#m752dd69966" y="167.082353"/>
      </g>
     </g>
     <g id="text_4">
      <!-- 7.5 -->
      <g transform="translate(180.81641 181.68079)scale(0.1 -0.1)">
       <defs>
        <path d="M 8.203125 72.90625 
L 55.078125 72.90625 
L 55.078125 68.703125 
L 28.609375 0 
L 18.3125 0 
L 43.21875 64.59375 
L 8.203125 64.59375 
z
" id="DejaVuSans-55"/>
       </defs>
       <use xlink:href="#DejaVuSans-55"/>
       <use x="63.623047" xlink:href="#DejaVuSans-46"/>
       <use x="95.410156" xlink:href="#DejaVuSans-53"/>
      </g>
     </g>
    </g>
    <g id="xtick_5">
     <g id="line2d_5">
      <g>
       <use style="stroke:#000000;stroke-width:0.8;" x="228.815819" xlink:href="#m752dd69966" y="167.082353"/>
      </g>
     </g>
     <g id="text_5">
      <!-- 10.0 -->
      <g transform="translate(217.683007 181.68079)scale(0.1 -0.1)">
       <defs>
        <path d="M 12.40625 8.296875 
L 28.515625 8.296875 
L 28.515625 63.921875 
L 10.984375 60.40625 
L 10.984375 69.390625 
L 28.421875 72.90625 
L 38.28125 72.90625 
L 38.28125 8.296875 
L 54.390625 8.296875 
L 54.390625 0 
L 12.40625 0 
z
" id="DejaVuSans-49"/>
       </defs>
       <use xlink:href="#DejaVuSans-49"/>
       <use x="63.623047" xlink:href="#DejaVuSans-48"/>
       <use x="127.246094" xlink:href="#DejaVuSans-46"/>
       <use x="159.033203" xlink:href="#DejaVuSans-48"/>
      </g>
     </g>
    </g>
    <g id="xtick_6">
     <g id="line2d_6">
      <g>
       <use style="stroke:#000000;stroke-width:0.8;" x="268.863666" xlink:href="#m752dd69966" y="167.082353"/>
      </g>
     </g>
     <g id="text_6">
      <!-- 12.5 -->
      <g transform="translate(257.730854 181.68079)scale(0.1 -0.1)">
       <use xlink:href="#DejaVuSans-49"/>
       <use x="63.623047" xlink:href="#DejaVuSans-50"/>
       <use x="127.246094" xlink:href="#DejaVuSans-46"/>
       <use x="159.033203" xlink:href="#DejaVuSans-53"/>
      </g>
     </g>
    </g>
    <g id="xtick_7">
     <g id="line2d_7">
      <g>
       <use style="stroke:#000000;stroke-width:0.8;" x="308.911513" xlink:href="#m752dd69966" y="167.082353"/>
      </g>
     </g>
     <g id="text_7">
      <!-- 15.0 -->
      <g transform="translate(297.778701 181.68079)scale(0.1 -0.1)">
       <use xlink:href="#DejaVuSans-49"/>
       <use x="63.623047" xlink:href="#DejaVuSans-53"/>
       <use x="127.246094" xlink:href="#DejaVuSans-46"/>
       <use x="159.033203" xlink:href="#DejaVuSans-48"/>
      </g>
     </g>
    </g>
    <g id="xtick_8">
     <g id="line2d_8">
      <g>
       <use style="stroke:#000000;stroke-width:0.8;" x="348.95936" xlink:href="#m752dd69966" y="167.082353"/>
      </g>
     </g>
     <g id="text_8">
      <!-- 17.5 -->
      <g transform="translate(337.826548 181.68079)scale(0.1 -0.1)">
       <use xlink:href="#DejaVuSans-49"/>
       <use x="63.623047" xlink:href="#DejaVuSans-55"/>
       <use x="127.246094" xlink:href="#DejaVuSans-46"/>
       <use x="159.033203" xlink:href="#DejaVuSans-53"/>
      </g>
     </g>
    </g>
   </g>
   <g id="matplotlib.axis_2">
    <g id="ytick_1">
     <g id="line2d_9">
      <defs>
       <path d="M 0 0 
L -3.5 0 
" id="m38eb0b0966" style="stroke:#000000;stroke-width:0.8;"/>
      </defs>
      <g>
       <use style="stroke:#000000;stroke-width:0.8;" x="53.40625" xlink:href="#m38eb0b0966" y="167.082353"/>
      </g>
     </g>
     <g id="text_9">
      <!-- 0 -->
      <g transform="translate(40.04375 170.881572)scale(0.1 -0.1)">
       <use xlink:href="#DejaVuSans-48"/>
      </g>
     </g>
    </g>
    <g id="ytick_2">
     <g id="line2d_10">
      <g>
       <use style="stroke:#000000;stroke-width:0.8;" x="53.40625" xlink:href="#m38eb0b0966" y="126.730185"/>
      </g>
     </g>
     <g id="text_10">
      <!-- 2000 -->
      <g transform="translate(20.95625 130.529403)scale(0.1 -0.1)">
       <use xlink:href="#DejaVuSans-50"/>
       <use x="63.623047" xlink:href="#DejaVuSans-48"/>
       <use x="127.246094" xlink:href="#DejaVuSans-48"/>
       <use x="190.869141" xlink:href="#DejaVuSans-48"/>
      </g>
     </g>
    </g>
    <g id="ytick_3">
     <g id="line2d_11">
      <g>
       <use style="stroke:#000000;stroke-width:0.8;" x="53.40625" xlink:href="#m38eb0b0966" y="86.378016"/>
      </g>
     </g>
     <g id="text_11">
      <!-- 4000 -->
      <g transform="translate(20.95625 90.177235)scale(0.1 -0.1)">
       <defs>
        <path d="M 37.796875 64.3125 
L 12.890625 25.390625 
L 37.796875 25.390625 
z
M 35.203125 72.90625 
L 47.609375 72.90625 
L 47.609375 25.390625 
L 58.015625 25.390625 
L 58.015625 17.1875 
L 47.609375 17.1875 
L 47.609375 0 
L 37.796875 0 
L 37.796875 17.1875 
L 4.890625 17.1875 
L 4.890625 26.703125 
z
" id="DejaVuSans-52"/>
       </defs>
       <use xlink:href="#DejaVuSans-52"/>
       <use x="63.623047" xlink:href="#DejaVuSans-48"/>
       <use x="127.246094" xlink:href="#DejaVuSans-48"/>
       <use x="190.869141" xlink:href="#DejaVuSans-48"/>
      </g>
     </g>
    </g>
    <g id="ytick_4">
     <g id="line2d_12">
      <g>
       <use style="stroke:#000000;stroke-width:0.8;" x="53.40625" xlink:href="#m38eb0b0966" y="46.025848"/>
      </g>
     </g>
     <g id="text_12">
      <!-- 6000 -->
      <g transform="translate(20.95625 49.825066)scale(0.1 -0.1)">
       <defs>
        <path d="M 33.015625 40.375 
Q 26.375 40.375 22.484375 35.828125 
Q 18.609375 31.296875 18.609375 23.390625 
Q 18.609375 15.53125 22.484375 10.953125 
Q 26.375 6.390625 33.015625 6.390625 
Q 39.65625 6.390625 43.53125 10.953125 
Q 47.40625 15.53125 47.40625 23.390625 
Q 47.40625 31.296875 43.53125 35.828125 
Q 39.65625 40.375 33.015625 40.375 
z
M 52.59375 71.296875 
L 52.59375 62.3125 
Q 48.875 64.0625 45.09375 64.984375 
Q 41.3125 65.921875 37.59375 65.921875 
Q 27.828125 65.921875 22.671875 59.328125 
Q 17.53125 52.734375 16.796875 39.40625 
Q 19.671875 43.65625 24.015625 45.921875 
Q 28.375 48.1875 33.59375 48.1875 
Q 44.578125 48.1875 50.953125 41.515625 
Q 57.328125 34.859375 57.328125 23.390625 
Q 57.328125 12.15625 50.6875 5.359375 
Q 44.046875 -1.421875 33.015625 -1.421875 
Q 20.359375 -1.421875 13.671875 8.265625 
Q 6.984375 17.96875 6.984375 36.375 
Q 6.984375 53.65625 15.1875 63.9375 
Q 23.390625 74.21875 37.203125 74.21875 
Q 40.921875 74.21875 44.703125 73.484375 
Q 48.484375 72.75 52.59375 71.296875 
z
" id="DejaVuSans-54"/>
       </defs>
       <use xlink:href="#DejaVuSans-54"/>
       <use x="63.623047" xlink:href="#DejaVuSans-48"/>
       <use x="127.246094" xlink:href="#DejaVuSans-48"/>
       <use x="190.869141" xlink:href="#DejaVuSans-48"/>
      </g>
     </g>
    </g>
    <g id="text_13">
     <!-- # Journeys 7kW -->
     <g style="fill:#004a9c;" transform="translate(14.798438 131.63727)rotate(-90)scale(0.1 -0.1)">
      <defs>
       <path d="M 44.484375 71.78125 
L 39.796875 52.984375 
L 52.6875 52.984375 
L 57.421875 71.78125 
L 68.21875 71.78125 
L 63.484375 52.984375 
L 77 52.984375 
L 77 42.578125 
L 60.890625 42.578125 
L 57.515625 29.203125 
L 71.390625 29.203125 
L 71.390625 18.703125 
L 54.984375 18.703125 
L 50.296875 0 
L 39.5 0 
L 44.1875 18.703125 
L 31.296875 18.703125 
L 26.609375 0 
L 15.71875 0 
L 20.40625 18.703125 
L 6.78125 18.703125 
L 6.78125 29.203125 
L 22.796875 29.203125 
L 26.21875 42.578125 
L 12.40625 42.578125 
L 12.40625 52.984375 
L 28.90625 52.984375 
L 33.59375 71.78125 
z
M 50 42.578125 
L 37.109375 42.578125 
L 33.6875 29.203125 
L 46.578125 29.203125 
z
" id="DejaVuSans-Bold-35"/>
       <path id="DejaVuSans-Bold-32"/>
       <path d="M 9.1875 72.90625 
L 27.984375 72.90625 
L 27.984375 7.078125 
Q 27.984375 -6.546875 20.578125 -13.28125 
Q 13.1875 -20.015625 -1.8125 -20.015625 
L -5.609375 -20.015625 
L -5.609375 -5.8125 
L -2.6875 -5.8125 
Q 3.171875 -5.8125 6.171875 -2.53125 
Q 9.1875 0.734375 9.1875 7.078125 
z
" id="DejaVuSans-Bold-74"/>
       <path d="M 34.421875 43.5 
Q 28.609375 43.5 25.5625 39.328125 
Q 22.515625 35.15625 22.515625 27.296875 
Q 22.515625 19.4375 25.5625 15.25 
Q 28.609375 11.078125 34.421875 11.078125 
Q 40.140625 11.078125 43.15625 15.25 
Q 46.1875 19.4375 46.1875 27.296875 
Q 46.1875 35.15625 43.15625 39.328125 
Q 40.140625 43.5 34.421875 43.5 
z
M 34.421875 56 
Q 48.53125 56 56.46875 48.375 
Q 64.40625 40.765625 64.40625 27.296875 
Q 64.40625 13.8125 56.46875 6.1875 
Q 48.53125 -1.421875 34.421875 -1.421875 
Q 20.265625 -1.421875 12.28125 6.1875 
Q 4.296875 13.8125 4.296875 27.296875 
Q 4.296875 40.765625 12.28125 48.375 
Q 20.265625 56 34.421875 56 
z
" id="DejaVuSans-Bold-111"/>
       <path d="M 7.8125 21.296875 
L 7.8125 54.6875 
L 25.390625 54.6875 
L 25.390625 49.21875 
Q 25.390625 44.78125 25.34375 38.0625 
Q 25.296875 31.34375 25.296875 29.109375 
Q 25.296875 22.515625 25.640625 19.609375 
Q 25.984375 16.703125 26.8125 15.375 
Q 27.875 13.671875 29.609375 12.734375 
Q 31.34375 11.8125 33.59375 11.8125 
Q 39.0625 11.8125 42.1875 16.015625 
Q 45.3125 20.21875 45.3125 27.6875 
L 45.3125 54.6875 
L 62.796875 54.6875 
L 62.796875 0 
L 45.3125 0 
L 45.3125 7.90625 
Q 41.359375 3.125 36.9375 0.84375 
Q 32.515625 -1.421875 27.203125 -1.421875 
Q 17.71875 -1.421875 12.765625 4.390625 
Q 7.8125 10.203125 7.8125 21.296875 
z
" id="DejaVuSans-Bold-117"/>
       <path d="M 49.03125 39.796875 
Q 46.734375 40.875 44.453125 41.375 
Q 42.1875 41.890625 39.890625 41.890625 
Q 33.15625 41.890625 29.515625 37.5625 
Q 25.875 33.25 25.875 25.203125 
L 25.875 0 
L 8.40625 0 
L 8.40625 54.6875 
L 25.875 54.6875 
L 25.875 45.703125 
Q 29.25 51.078125 33.609375 53.53125 
Q 37.984375 56 44.09375 56 
Q 44.96875 56 45.984375 55.921875 
Q 47.015625 55.859375 48.96875 55.609375 
z
" id="DejaVuSans-Bold-114"/>
       <path d="M 63.375 33.296875 
L 63.375 0 
L 45.796875 0 
L 45.796875 5.421875 
L 45.796875 25.484375 
Q 45.796875 32.5625 45.484375 35.25 
Q 45.171875 37.9375 44.390625 39.203125 
Q 43.359375 40.921875 41.59375 41.875 
Q 39.84375 42.828125 37.59375 42.828125 
Q 32.125 42.828125 29 38.59375 
Q 25.875 34.375 25.875 26.90625 
L 25.875 0 
L 8.40625 0 
L 8.40625 54.6875 
L 25.875 54.6875 
L 25.875 46.6875 
Q 29.828125 51.46875 34.265625 53.734375 
Q 38.71875 56 44.09375 56 
Q 53.5625 56 58.46875 50.1875 
Q 63.375 44.390625 63.375 33.296875 
z
" id="DejaVuSans-Bold-110"/>
       <path d="M 62.984375 27.484375 
L 62.984375 22.515625 
L 22.125 22.515625 
Q 22.75 16.359375 26.5625 13.28125 
Q 30.375 10.203125 37.203125 10.203125 
Q 42.71875 10.203125 48.5 11.84375 
Q 54.296875 13.484375 60.40625 16.796875 
L 60.40625 3.328125 
Q 54.203125 0.984375 48 -0.21875 
Q 41.796875 -1.421875 35.59375 -1.421875 
Q 20.75 -1.421875 12.515625 6.125 
Q 4.296875 13.671875 4.296875 27.296875 
Q 4.296875 40.671875 12.375 48.328125 
Q 20.453125 56 34.625 56 
Q 47.515625 56 55.25 48.234375 
Q 62.984375 40.484375 62.984375 27.484375 
z
M 45.015625 33.296875 
Q 45.015625 38.28125 42.109375 41.328125 
Q 39.203125 44.390625 34.515625 44.390625 
Q 29.4375 44.390625 26.265625 41.53125 
Q 23.09375 38.671875 22.3125 33.296875 
z
" id="DejaVuSans-Bold-101"/>
       <path d="M 1.21875 54.6875 
L 18.703125 54.6875 
L 33.40625 17.578125 
L 45.90625 54.6875 
L 63.375 54.6875 
L 40.375 -5.171875 
Q 36.921875 -14.3125 32.296875 -17.9375 
Q 27.6875 -21.578125 20.125 -21.578125 
L 10.015625 -21.578125 
L 10.015625 -10.109375 
L 15.484375 -10.109375 
Q 19.921875 -10.109375 21.9375 -8.6875 
Q 23.96875 -7.28125 25.09375 -3.609375 
L 25.59375 -2.09375 
z
" id="DejaVuSans-Bold-121"/>
       <path d="M 51.125 52.984375 
L 51.125 39.703125 
Q 45.515625 42.046875 40.28125 43.21875 
Q 35.0625 44.390625 30.421875 44.390625 
Q 25.4375 44.390625 23.015625 43.140625 
Q 20.609375 41.890625 20.609375 39.3125 
Q 20.609375 37.203125 22.4375 36.078125 
Q 24.265625 34.96875 29 34.421875 
L 32.078125 33.984375 
Q 45.515625 32.28125 50.140625 28.375 
Q 54.78125 24.46875 54.78125 16.109375 
Q 54.78125 7.375 48.328125 2.96875 
Q 41.890625 -1.421875 29.109375 -1.421875 
Q 23.6875 -1.421875 17.890625 -0.5625 
Q 12.109375 0.296875 6 2 
L 6 15.28125 
Q 11.234375 12.75 16.71875 11.46875 
Q 22.21875 10.203125 27.875 10.203125 
Q 33.015625 10.203125 35.59375 11.609375 
Q 38.1875 13.03125 38.1875 15.828125 
Q 38.1875 18.171875 36.40625 19.3125 
Q 34.625 20.453125 29.296875 21.09375 
L 26.21875 21.484375 
Q 14.546875 22.953125 9.859375 26.90625 
Q 5.171875 30.859375 5.171875 38.921875 
Q 5.171875 47.609375 11.125 51.796875 
Q 17.09375 56 29.390625 56 
Q 34.234375 56 39.546875 55.265625 
Q 44.875 54.546875 51.125 52.984375 
z
" id="DejaVuSans-Bold-115"/>
       <path d="M 6.6875 72.90625 
L 61.625 72.90625 
L 61.625 62.3125 
L 33.203125 0 
L 14.890625 0 
L 41.796875 59.078125 
L 6.6875 59.078125 
z
" id="DejaVuSans-Bold-55"/>
       <path d="M 8.40625 75.984375 
L 25.875 75.984375 
L 25.875 34.625 
L 46 54.6875 
L 66.3125 54.6875 
L 39.59375 29.59375 
L 68.40625 0 
L 47.21875 0 
L 25.875 22.796875 
L 25.875 0 
L 8.40625 0 
z
" id="DejaVuSans-Bold-107"/>
       <path d="M 2.984375 72.90625 
L 21 72.90625 
L 33.59375 19.921875 
L 46.09375 72.90625 
L 64.203125 72.90625 
L 76.703125 19.921875 
L 89.3125 72.90625 
L 107.171875 72.90625 
L 89.984375 0 
L 68.3125 0 
L 55.078125 55.421875 
L 42 0 
L 20.3125 0 
z
" id="DejaVuSans-Bold-87"/>
      </defs>
      <use xlink:href="#DejaVuSans-Bold-35"/>
      <use x="83.789062" xlink:href="#DejaVuSans-Bold-32"/>
      <use x="118.603516" xlink:href="#DejaVuSans-Bold-74"/>
      <use x="155.810547" xlink:href="#DejaVuSans-Bold-111"/>
      <use x="224.511719" xlink:href="#DejaVuSans-Bold-117"/>
      <use x="295.703125" xlink:href="#DejaVuSans-Bold-114"/>
      <use x="345.019531" xlink:href="#DejaVuSans-Bold-110"/>
      <use x="416.210938" xlink:href="#DejaVuSans-Bold-101"/>
      <use x="484.033203" xlink:href="#DejaVuSans-Bold-121"/>
      <use x="549.21875" xlink:href="#DejaVuSans-Bold-115"/>
      <use x="608.740234" xlink:href="#DejaVuSans-Bold-32"/>
      <use x="643.554688" xlink:href="#DejaVuSans-Bold-55"/>
      <use x="713.134766" xlink:href="#DejaVuSans-Bold-107"/>
      <use x="779.638672" xlink:href="#DejaVuSans-Bold-87"/>
     </g>
    </g>
   </g>
   <g id="patch_41">
    <path d="M 53.40625 167.082353 
L 53.40625 7.2 
" style="fill:none;stroke:#000000;stroke-linecap:square;stroke-linejoin:miter;stroke-width:0.8;"/>
   </g>
   <g id="patch_42">
    <path d="M 388.20625 167.082353 
L 388.20625 7.2 
" style="fill:none;stroke:#000000;stroke-linecap:square;stroke-linejoin:miter;stroke-width:0.8;"/>
   </g>
   <g id="patch_43">
    <path d="M 53.40625 167.082353 
L 388.20625 167.082353 
" style="fill:none;stroke:#000000;stroke-linecap:square;stroke-linejoin:miter;stroke-width:0.8;"/>
   </g>
   <g id="patch_44">
    <path d="M 53.40625 7.2 
L 388.20625 7.2 
" style="fill:none;stroke:#000000;stroke-linecap:square;stroke-linejoin:miter;stroke-width:0.8;"/>
   </g>
   <g id="legend_1">
    <g id="patch_45">
     <path d="M 320.434375 23.798438 
L 340.434375 23.798438 
L 340.434375 16.798438 
L 320.434375 16.798438 
z
" style="fill:#45d281;opacity:0.8;"/>
    </g>
    <g id="text_14">
     <!-- EVs -->
     <g transform="translate(348.434375 23.798438)scale(0.1 -0.1)">
      <defs>
       <path d="M 9.8125 72.90625 
L 55.90625 72.90625 
L 55.90625 64.59375 
L 19.671875 64.59375 
L 19.671875 43.015625 
L 54.390625 43.015625 
L 54.390625 34.71875 
L 19.671875 34.71875 
L 19.671875 8.296875 
L 56.78125 8.296875 
L 56.78125 0 
L 9.8125 0 
z
" id="DejaVuSans-69"/>
       <path d="M 28.609375 0 
L 0.78125 72.90625 
L 11.078125 72.90625 
L 34.1875 11.53125 
L 57.328125 72.90625 
L 67.578125 72.90625 
L 39.796875 0 
z
" id="DejaVuSans-86"/>
       <path d="M 44.28125 53.078125 
L 44.28125 44.578125 
Q 40.484375 46.53125 36.375 47.5 
Q 32.28125 48.484375 27.875 48.484375 
Q 21.1875 48.484375 17.84375 46.4375 
Q 14.5 44.390625 14.5 40.28125 
Q 14.5 37.15625 16.890625 35.375 
Q 19.28125 33.59375 26.515625 31.984375 
L 29.59375 31.296875 
Q 39.15625 29.25 43.1875 25.515625 
Q 47.21875 21.78125 47.21875 15.09375 
Q 47.21875 7.46875 41.1875 3.015625 
Q 35.15625 -1.421875 24.609375 -1.421875 
Q 20.21875 -1.421875 15.453125 -0.5625 
Q 10.6875 0.296875 5.421875 2 
L 5.421875 11.28125 
Q 10.40625 8.6875 15.234375 7.390625 
Q 20.0625 6.109375 24.8125 6.109375 
Q 31.15625 6.109375 34.5625 8.28125 
Q 37.984375 10.453125 37.984375 14.40625 
Q 37.984375 18.0625 35.515625 20.015625 
Q 33.0625 21.96875 24.703125 23.78125 
L 21.578125 24.515625 
Q 13.234375 26.265625 9.515625 29.90625 
Q 5.8125 33.546875 5.8125 39.890625 
Q 5.8125 47.609375 11.28125 51.796875 
Q 16.75 56 26.8125 56 
Q 31.78125 56 36.171875 55.265625 
Q 40.578125 54.546875 44.28125 53.078125 
z
" id="DejaVuSans-115"/>
      </defs>
      <use xlink:href="#DejaVuSans-69"/>
      <use x="63.183594" xlink:href="#DejaVuSans-86"/>
      <use x="131.591797" xlink:href="#DejaVuSans-115"/>
     </g>
    </g>
    <g id="patch_46">
     <path d="M 320.434375 38.476563 
L 340.434375 38.476563 
L 340.434375 31.476563 
L 320.434375 31.476563 
z
" style="fill:#004a9c;opacity:0.6;"/>
    </g>
    <g id="text_15">
     <!-- Diesel -->
     <g transform="translate(348.434375 38.476563)scale(0.1 -0.1)">
      <defs>
       <path d="M 19.671875 64.796875 
L 19.671875 8.109375 
L 31.59375 8.109375 
Q 46.6875 8.109375 53.6875 14.9375 
Q 60.6875 21.78125 60.6875 36.53125 
Q 60.6875 51.171875 53.6875 57.984375 
Q 46.6875 64.796875 31.59375 64.796875 
z
M 9.8125 72.90625 
L 30.078125 72.90625 
Q 51.265625 72.90625 61.171875 64.09375 
Q 71.09375 55.28125 71.09375 36.53125 
Q 71.09375 17.671875 61.125 8.828125 
Q 51.171875 0 30.078125 0 
L 9.8125 0 
z
" id="DejaVuSans-68"/>
       <path d="M 9.421875 54.6875 
L 18.40625 54.6875 
L 18.40625 0 
L 9.421875 0 
z
M 9.421875 75.984375 
L 18.40625 75.984375 
L 18.40625 64.59375 
L 9.421875 64.59375 
z
" id="DejaVuSans-105"/>
       <path d="M 56.203125 29.59375 
L 56.203125 25.203125 
L 14.890625 25.203125 
Q 15.484375 15.921875 20.484375 11.0625 
Q 25.484375 6.203125 34.421875 6.203125 
Q 39.59375 6.203125 44.453125 7.46875 
Q 49.3125 8.734375 54.109375 11.28125 
L 54.109375 2.78125 
Q 49.265625 0.734375 44.1875 -0.34375 
Q 39.109375 -1.421875 33.890625 -1.421875 
Q 20.796875 -1.421875 13.15625 6.1875 
Q 5.515625 13.8125 5.515625 26.8125 
Q 5.515625 40.234375 12.765625 48.109375 
Q 20.015625 56 32.328125 56 
Q 43.359375 56 49.78125 48.890625 
Q 56.203125 41.796875 56.203125 29.59375 
z
M 47.21875 32.234375 
Q 47.125 39.59375 43.09375 43.984375 
Q 39.0625 48.390625 32.421875 48.390625 
Q 24.90625 48.390625 20.390625 44.140625 
Q 15.875 39.890625 15.1875 32.171875 
z
" id="DejaVuSans-101"/>
       <path d="M 9.421875 75.984375 
L 18.40625 75.984375 
L 18.40625 0 
L 9.421875 0 
z
" id="DejaVuSans-108"/>
      </defs>
      <use xlink:href="#DejaVuSans-68"/>
      <use x="77.001953" xlink:href="#DejaVuSans-105"/>
      <use x="104.785156" xlink:href="#DejaVuSans-101"/>
      <use x="166.308594" xlink:href="#DejaVuSans-115"/>
      <use x="218.408203" xlink:href="#DejaVuSans-101"/>
      <use x="279.931641" xlink:href="#DejaVuSans-108"/>
     </g>
    </g>
   </g>
  </g>
  <g id="axes_2">
   <g id="patch_47">
    <path d="M 53.40625 358.941176 
L 388.20625 358.941176 
L 388.20625 199.058824 
L 53.40625 199.058824 
z
" style="fill:#ffffff;"/>
   </g>
   <g id="patch_48">
    <path clip-path="url(#p7e7eb4096c)" d="M 68.624432 358.941176 
L 84.643571 358.941176 
L 84.643571 206.672269 
L 68.624432 206.672269 
z
" style="fill:#45d281;opacity:0.8;"/>
   </g>
   <g id="patch_49">
    <path clip-path="url(#p7e7eb4096c)" d="M 84.643571 358.941176 
L 100.662709 358.941176 
L 100.662709 300.879947 
L 84.643571 300.879947 
z
" style="fill:#45d281;opacity:0.8;"/>
   </g>
   <g id="patch_50">
    <path clip-path="url(#p7e7eb4096c)" d="M 100.662709 358.941176 
L 116.681848 358.941176 
L 116.681848 330.955545 
L 100.662709 330.955545 
z
" style="fill:#45d281;opacity:0.8;"/>
   </g>
   <g id="patch_51">
    <path clip-path="url(#p7e7eb4096c)" d="M 116.681848 358.941176 
L 132.700987 358.941176 
L 132.700987 348.13307 
L 116.681848 348.13307 
z
" style="fill:#45d281;opacity:0.8;"/>
   </g>
   <g id="patch_52">
    <path clip-path="url(#p7e7eb4096c)" d="M 132.700987 358.941176 
L 148.720126 358.941176 
L 148.720126 354.024782 
L 132.700987 354.024782 
z
" style="fill:#45d281;opacity:0.8;"/>
   </g>
   <g id="patch_53">
    <path clip-path="url(#p7e7eb4096c)" d="M 148.720126 358.941176 
L 164.739264 358.941176 
L 164.739264 358.045477 
L 148.720126 358.045477 
z
" style="fill:#45d281;opacity:0.8;"/>
   </g>
   <g id="patch_54">
    <path clip-path="url(#p7e7eb4096c)" d="M 164.739264 358.941176 
L 180.758403 358.941176 
L 180.758403 350.163322 
L 164.739264 350.163322 
z
" style="fill:#45d281;opacity:0.8;"/>
   </g>
   <g id="patch_55">
    <path clip-path="url(#p7e7eb4096c)" d="M 180.758403 358.941176 
L 196.777542 358.941176 
L 196.777542 282.687296 
L 180.758403 282.687296 
z
" style="fill:#45d281;opacity:0.8;"/>
   </g>
   <g id="patch_56">
    <path clip-path="url(#p7e7eb4096c)" d="M 196.777542 358.941176 
L 212.796681 358.941176 
L 212.796681 287.305124 
L 196.777542 287.305124 
z
" style="fill:#45d281;opacity:0.8;"/>
   </g>
   <g id="patch_57">
    <path clip-path="url(#p7e7eb4096c)" d="M 212.796681 358.941176 
L 228.815819 358.941176 
L 228.815819 319.809062 
L 212.796681 319.809062 
z
" style="fill:#45d281;opacity:0.8;"/>
   </g>
   <g id="patch_58">
    <path clip-path="url(#p7e7eb4096c)" d="M 228.815819 358.941176 
L 244.834958 358.941176 
L 244.834958 336.887065 
L 228.815819 336.887065 
z
" style="fill:#45d281;opacity:0.8;"/>
   </g>
   <g id="patch_59">
    <path clip-path="url(#p7e7eb4096c)" d="M 244.834958 358.941176 
L 260.854097 358.941176 
L 260.854097 346.441193 
L 244.834958 346.441193 
z
" style="fill:#45d281;opacity:0.8;"/>
   </g>
   <g id="patch_60">
    <path clip-path="url(#p7e7eb4096c)" d="M 260.854097 358.941176 
L 276.873236 358.941176 
L 276.873236 351.158543 
L 260.854097 351.158543 
z
" style="fill:#45d281;opacity:0.8;"/>
   </g>
   <g id="patch_61">
    <path clip-path="url(#p7e7eb4096c)" d="M 276.873236 358.941176 
L 292.892374 358.941176 
L 292.892374 352.551854 
L 276.873236 352.551854 
z
" style="fill:#45d281;opacity:0.8;"/>
   </g>
   <g id="patch_62">
    <path clip-path="url(#p7e7eb4096c)" d="M 292.892374 358.941176 
L 308.911513 358.941176 
L 308.911513 354.96029 
L 292.892374 354.96029 
z
" style="fill:#45d281;opacity:0.8;"/>
   </g>
   <g id="patch_63">
    <path clip-path="url(#p7e7eb4096c)" d="M 308.911513 358.941176 
L 324.930652 358.941176 
L 324.930652 345.227023 
L 308.911513 345.227023 
z
" style="fill:#45d281;opacity:0.8;"/>
   </g>
   <g id="patch_64">
    <path clip-path="url(#p7e7eb4096c)" d="M 324.930652 358.941176 
L 340.949791 358.941176 
L 340.949791 304.403032 
L 324.930652 304.403032 
z
" style="fill:#45d281;opacity:0.8;"/>
   </g>
   <g id="patch_65">
    <path clip-path="url(#p7e7eb4096c)" d="M 340.949791 358.941176 
L 356.968929 358.941176 
L 356.968929 336.230219 
L 340.949791 336.230219 
z
" style="fill:#45d281;opacity:0.8;"/>
   </g>
   <g id="patch_66">
    <path clip-path="url(#p7e7eb4096c)" d="M 356.968929 358.941176 
L 372.988068 358.941176 
L 372.988068 351.417301 
L 356.968929 351.417301 
z
" style="fill:#45d281;opacity:0.8;"/>
   </g>
   <g id="patch_67">
    <path clip-path="url(#p7e7eb4096c)" d="M 68.624432 358.941176 
L 84.643571 358.941176 
L 84.643571 348.869534 
L 68.624432 348.869534 
z
" style="fill:#004a9c;opacity:0.6;"/>
   </g>
   <g id="patch_68">
    <path clip-path="url(#p7e7eb4096c)" d="M 84.643571 358.941176 
L 100.662709 358.941176 
L 100.662709 354.044686 
L 84.643571 354.044686 
z
" style="fill:#004a9c;opacity:0.6;"/>
   </g>
   <g id="patch_69">
    <path clip-path="url(#p7e7eb4096c)" d="M 100.662709 358.941176 
L 116.681848 358.941176 
L 116.681848 357.169682 
L 100.662709 357.169682 
z
" style="fill:#004a9c;opacity:0.6;"/>
   </g>
   <g id="patch_70">
    <path clip-path="url(#p7e7eb4096c)" d="M 116.681848 358.941176 
L 132.700987 358.941176 
L 132.700987 358.304235 
L 116.681848 358.304235 
z
" style="fill:#004a9c;opacity:0.6;"/>
   </g>
   <g id="patch_71">
    <path clip-path="url(#p7e7eb4096c)" d="M 132.700987 358.941176 
L 148.720126 358.941176 
L 148.720126 358.781941 
L 132.700987 358.781941 
z
" style="fill:#004a9c;opacity:0.6;"/>
   </g>
   <g id="patch_72">
    <path clip-path="url(#p7e7eb4096c)" d="M 148.720126 358.941176 
L 164.739264 358.941176 
L 164.739264 358.901368 
L 148.720126 358.901368 
z
" style="fill:#004a9c;opacity:0.6;"/>
   </g>
   <g id="patch_73">
    <path clip-path="url(#p7e7eb4096c)" d="M 164.739264 358.941176 
L 180.758403 358.941176 
L 180.758403 358.443566 
L 164.739264 358.443566 
z
" style="fill:#004a9c;opacity:0.6;"/>
   </g>
   <g id="patch_74">
    <path clip-path="url(#p7e7eb4096c)" d="M 180.758403 358.941176 
L 196.777542 358.941176 
L 196.777542 357.209491 
L 180.758403 357.209491 
z
" style="fill:#004a9c;opacity:0.6;"/>
   </g>
   <g id="patch_75">
    <path clip-path="url(#p7e7eb4096c)" d="M 196.777542 358.941176 
L 212.796681 358.941176 
L 212.796681 356.791498 
L 196.777542 356.791498 
z
" style="fill:#004a9c;opacity:0.6;"/>
   </g>
   <g id="patch_76">
    <path clip-path="url(#p7e7eb4096c)" d="M 212.796681 358.941176 
L 228.815819 358.941176 
L 228.815819 355.378283 
L 212.796681 355.378283 
z
" style="fill:#004a9c;opacity:0.6;"/>
   </g>
   <g id="patch_77">
    <path clip-path="url(#p7e7eb4096c)" d="M 228.815819 358.941176 
L 244.834958 358.941176 
L 244.834958 354.482584 
L 228.815819 354.482584 
z
" style="fill:#004a9c;opacity:0.6;"/>
   </g>
   <g id="patch_78">
    <path clip-path="url(#p7e7eb4096c)" d="M 244.834958 358.941176 
L 260.854097 358.941176 
L 260.854097 353.92526 
L 244.834958 353.92526 
z
" style="fill:#004a9c;opacity:0.6;"/>
   </g>
   <g id="patch_79">
    <path clip-path="url(#p7e7eb4096c)" d="M 260.854097 358.941176 
L 276.873236 358.941176 
L 276.873236 356.074938 
L 260.854097 356.074938 
z
" style="fill:#004a9c;opacity:0.6;"/>
   </g>
   <g id="patch_80">
    <path clip-path="url(#p7e7eb4096c)" d="M 276.873236 358.941176 
L 292.892374 358.941176 
L 292.892374 357.587675 
L 276.873236 357.587675 
z
" style="fill:#004a9c;opacity:0.6;"/>
   </g>
   <g id="patch_81">
    <path clip-path="url(#p7e7eb4096c)" d="M 292.892374 358.941176 
L 308.911513 358.941176 
L 308.911513 355.517614 
L 292.892374 355.517614 
z
" style="fill:#004a9c;opacity:0.6;"/>
   </g>
   <g id="patch_82">
    <path clip-path="url(#p7e7eb4096c)" d="M 308.911513 358.941176 
L 324.930652 358.941176 
L 324.930652 329.243763 
L 308.911513 329.243763 
z
" style="fill:#004a9c;opacity:0.6;"/>
   </g>
   <g id="patch_83">
    <path clip-path="url(#p7e7eb4096c)" d="M 324.930652 358.941176 
L 340.949791 358.941176 
L 340.949791 295.028044 
L 324.930652 295.028044 
z
" style="fill:#004a9c;opacity:0.6;"/>
   </g>
   <g id="patch_84">
    <path clip-path="url(#p7e7eb4096c)" d="M 340.949791 358.941176 
L 356.968929 358.941176 
L 356.968929 310.812259 
L 340.949791 310.812259 
z
" style="fill:#004a9c;opacity:0.6;"/>
   </g>
   <g id="patch_85">
    <path clip-path="url(#p7e7eb4096c)" d="M 356.968929 358.941176 
L 372.988068 358.941176 
L 372.988068 342.52002 
L 356.968929 342.52002 
z
" style="fill:#004a9c;opacity:0.6;"/>
   </g>
   <g id="matplotlib.axis_3">
    <g id="xtick_9">
     <g id="line2d_13">
      <g>
       <use style="stroke:#000000;stroke-width:0.8;" x="68.624432" xlink:href="#m752dd69966" y="358.941176"/>
      </g>
     </g>
     <g id="text_16">
      <!-- 0.0 -->
      <g transform="translate(60.672869 373.539614)scale(0.1 -0.1)">
       <use xlink:href="#DejaVuSans-48"/>
       <use x="63.623047" xlink:href="#DejaVuSans-46"/>
       <use x="95.410156" xlink:href="#DejaVuSans-48"/>
      </g>
     </g>
    </g>
    <g id="xtick_10">
     <g id="line2d_14">
      <g>
       <use style="stroke:#000000;stroke-width:0.8;" x="108.672279" xlink:href="#m752dd69966" y="358.941176"/>
      </g>
     </g>
     <g id="text_17">
      <!-- 2.5 -->
      <g transform="translate(100.720716 373.539614)scale(0.1 -0.1)">
       <use xlink:href="#DejaVuSans-50"/>
       <use x="63.623047" xlink:href="#DejaVuSans-46"/>
       <use x="95.410156" xlink:href="#DejaVuSans-53"/>
      </g>
     </g>
    </g>
    <g id="xtick_11">
     <g id="line2d_15">
      <g>
       <use style="stroke:#000000;stroke-width:0.8;" x="148.720126" xlink:href="#m752dd69966" y="358.941176"/>
      </g>
     </g>
     <g id="text_18">
      <!-- 5.0 -->
      <g transform="translate(140.768563 373.539614)scale(0.1 -0.1)">
       <use xlink:href="#DejaVuSans-53"/>
       <use x="63.623047" xlink:href="#DejaVuSans-46"/>
       <use x="95.410156" xlink:href="#DejaVuSans-48"/>
      </g>
     </g>
    </g>
    <g id="xtick_12">
     <g id="line2d_16">
      <g>
       <use style="stroke:#000000;stroke-width:0.8;" x="188.767972" xlink:href="#m752dd69966" y="358.941176"/>
      </g>
     </g>
     <g id="text_19">
      <!-- 7.5 -->
      <g transform="translate(180.81641 373.539614)scale(0.1 -0.1)">
       <use xlink:href="#DejaVuSans-55"/>
       <use x="63.623047" xlink:href="#DejaVuSans-46"/>
       <use x="95.410156" xlink:href="#DejaVuSans-53"/>
      </g>
     </g>
    </g>
    <g id="xtick_13">
     <g id="line2d_17">
      <g>
       <use style="stroke:#000000;stroke-width:0.8;" x="228.815819" xlink:href="#m752dd69966" y="358.941176"/>
      </g>
     </g>
     <g id="text_20">
      <!-- 10.0 -->
      <g transform="translate(217.683007 373.539614)scale(0.1 -0.1)">
       <use xlink:href="#DejaVuSans-49"/>
       <use x="63.623047" xlink:href="#DejaVuSans-48"/>
       <use x="127.246094" xlink:href="#DejaVuSans-46"/>
       <use x="159.033203" xlink:href="#DejaVuSans-48"/>
      </g>
     </g>
    </g>
    <g id="xtick_14">
     <g id="line2d_18">
      <g>
       <use style="stroke:#000000;stroke-width:0.8;" x="268.863666" xlink:href="#m752dd69966" y="358.941176"/>
      </g>
     </g>
     <g id="text_21">
      <!-- 12.5 -->
      <g transform="translate(257.730854 373.539614)scale(0.1 -0.1)">
       <use xlink:href="#DejaVuSans-49"/>
       <use x="63.623047" xlink:href="#DejaVuSans-50"/>
       <use x="127.246094" xlink:href="#DejaVuSans-46"/>
       <use x="159.033203" xlink:href="#DejaVuSans-53"/>
      </g>
     </g>
    </g>
    <g id="xtick_15">
     <g id="line2d_19">
      <g>
       <use style="stroke:#000000;stroke-width:0.8;" x="308.911513" xlink:href="#m752dd69966" y="358.941176"/>
      </g>
     </g>
     <g id="text_22">
      <!-- 15.0 -->
      <g transform="translate(297.778701 373.539614)scale(0.1 -0.1)">
       <use xlink:href="#DejaVuSans-49"/>
       <use x="63.623047" xlink:href="#DejaVuSans-53"/>
       <use x="127.246094" xlink:href="#DejaVuSans-46"/>
       <use x="159.033203" xlink:href="#DejaVuSans-48"/>
      </g>
     </g>
    </g>
    <g id="xtick_16">
     <g id="line2d_20">
      <g>
       <use style="stroke:#000000;stroke-width:0.8;" x="348.95936" xlink:href="#m752dd69966" y="358.941176"/>
      </g>
     </g>
     <g id="text_23">
      <!-- 17.5 -->
      <g transform="translate(337.826548 373.539614)scale(0.1 -0.1)">
       <use xlink:href="#DejaVuSans-49"/>
       <use x="63.623047" xlink:href="#DejaVuSans-55"/>
       <use x="127.246094" xlink:href="#DejaVuSans-46"/>
       <use x="159.033203" xlink:href="#DejaVuSans-53"/>
      </g>
     </g>
    </g>
   </g>
   <g id="matplotlib.axis_4">
    <g id="ytick_5">
     <g id="line2d_21">
      <g>
       <use style="stroke:#000000;stroke-width:0.8;" x="53.40625" xlink:href="#m38eb0b0966" y="358.941176"/>
      </g>
     </g>
     <g id="text_24">
      <!-- 0 -->
      <g transform="translate(40.04375 362.740395)scale(0.1 -0.1)">
       <use xlink:href="#DejaVuSans-48"/>
      </g>
     </g>
    </g>
    <g id="ytick_6">
     <g id="line2d_22">
      <g>
       <use style="stroke:#000000;stroke-width:0.8;" x="53.40625" xlink:href="#m38eb0b0966" y="319.132312"/>
      </g>
     </g>
     <g id="text_25">
      <!-- 2000 -->
      <g transform="translate(20.95625 322.93153)scale(0.1 -0.1)">
       <use xlink:href="#DejaVuSans-50"/>
       <use x="63.623047" xlink:href="#DejaVuSans-48"/>
       <use x="127.246094" xlink:href="#DejaVuSans-48"/>
       <use x="190.869141" xlink:href="#DejaVuSans-48"/>
      </g>
     </g>
    </g>
    <g id="ytick_7">
     <g id="line2d_23">
      <g>
       <use style="stroke:#000000;stroke-width:0.8;" x="53.40625" xlink:href="#m38eb0b0966" y="279.323447"/>
      </g>
     </g>
     <g id="text_26">
      <!-- 4000 -->
      <g transform="translate(20.95625 283.122666)scale(0.1 -0.1)">
       <use xlink:href="#DejaVuSans-52"/>
       <use x="63.623047" xlink:href="#DejaVuSans-48"/>
       <use x="127.246094" xlink:href="#DejaVuSans-48"/>
       <use x="190.869141" xlink:href="#DejaVuSans-48"/>
      </g>
     </g>
    </g>
    <g id="ytick_8">
     <g id="line2d_24">
      <g>
       <use style="stroke:#000000;stroke-width:0.8;" x="53.40625" xlink:href="#m38eb0b0966" y="239.514582"/>
      </g>
     </g>
     <g id="text_27">
      <!-- 6000 -->
      <g transform="translate(20.95625 243.313801)scale(0.1 -0.1)">
       <use xlink:href="#DejaVuSans-54"/>
       <use x="63.623047" xlink:href="#DejaVuSans-48"/>
       <use x="127.246094" xlink:href="#DejaVuSans-48"/>
       <use x="190.869141" xlink:href="#DejaVuSans-48"/>
      </g>
     </g>
    </g>
    <g id="ytick_9">
     <g id="line2d_25">
      <g>
       <use style="stroke:#000000;stroke-width:0.8;" x="53.40625" xlink:href="#m38eb0b0966" y="199.705718"/>
      </g>
     </g>
     <g id="text_28">
      <!-- 8000 -->
      <g transform="translate(20.95625 203.504936)scale(0.1 -0.1)">
       <defs>
        <path d="M 31.78125 34.625 
Q 24.75 34.625 20.71875 30.859375 
Q 16.703125 27.09375 16.703125 20.515625 
Q 16.703125 13.921875 20.71875 10.15625 
Q 24.75 6.390625 31.78125 6.390625 
Q 38.8125 6.390625 42.859375 10.171875 
Q 46.921875 13.96875 46.921875 20.515625 
Q 46.921875 27.09375 42.890625 30.859375 
Q 38.875 34.625 31.78125 34.625 
z
M 21.921875 38.8125 
Q 15.578125 40.375 12.03125 44.71875 
Q 8.5 49.078125 8.5 55.328125 
Q 8.5 64.0625 14.71875 69.140625 
Q 20.953125 74.21875 31.78125 74.21875 
Q 42.671875 74.21875 48.875 69.140625 
Q 55.078125 64.0625 55.078125 55.328125 
Q 55.078125 49.078125 51.53125 44.71875 
Q 48 40.375 41.703125 38.8125 
Q 48.828125 37.15625 52.796875 32.3125 
Q 56.78125 27.484375 56.78125 20.515625 
Q 56.78125 9.90625 50.3125 4.234375 
Q 43.84375 -1.421875 31.78125 -1.421875 
Q 19.734375 -1.421875 13.25 4.234375 
Q 6.78125 9.90625 6.78125 20.515625 
Q 6.78125 27.484375 10.78125 32.3125 
Q 14.796875 37.15625 21.921875 38.8125 
z
M 18.3125 54.390625 
Q 18.3125 48.734375 21.84375 45.5625 
Q 25.390625 42.390625 31.78125 42.390625 
Q 38.140625 42.390625 41.71875 45.5625 
Q 45.3125 48.734375 45.3125 54.390625 
Q 45.3125 60.0625 41.71875 63.234375 
Q 38.140625 66.40625 31.78125 66.40625 
Q 25.390625 66.40625 21.84375 63.234375 
Q 18.3125 60.0625 18.3125 54.390625 
z
" id="DejaVuSans-56"/>
       </defs>
       <use xlink:href="#DejaVuSans-56"/>
       <use x="63.623047" xlink:href="#DejaVuSans-48"/>
       <use x="127.246094" xlink:href="#DejaVuSans-48"/>
       <use x="190.869141" xlink:href="#DejaVuSans-48"/>
      </g>
     </g>
    </g>
    <g id="text_29">
     <!-- # Journeys 22kW -->
     <g style="fill:#004a9c;" transform="translate(14.798438 326.975)rotate(-90)scale(0.1 -0.1)">
      <defs>
       <path d="M 28.8125 13.8125 
L 60.890625 13.8125 
L 60.890625 0 
L 7.90625 0 
L 7.90625 13.8125 
L 34.515625 37.3125 
Q 38.09375 40.53125 39.796875 43.609375 
Q 41.5 46.6875 41.5 50 
Q 41.5 55.125 38.0625 58.25 
Q 34.625 61.375 28.90625 61.375 
Q 24.515625 61.375 19.28125 59.5 
Q 14.0625 57.625 8.109375 53.90625 
L 8.109375 69.921875 
Q 14.453125 72.015625 20.65625 73.109375 
Q 26.859375 74.21875 32.8125 74.21875 
Q 45.90625 74.21875 53.15625 68.453125 
Q 60.40625 62.703125 60.40625 52.390625 
Q 60.40625 46.4375 57.328125 41.28125 
Q 54.25 36.140625 44.390625 27.484375 
z
" id="DejaVuSans-Bold-50"/>
      </defs>
      <use xlink:href="#DejaVuSans-Bold-35"/>
      <use x="83.789062" xlink:href="#DejaVuSans-Bold-32"/>
      <use x="118.603516" xlink:href="#DejaVuSans-Bold-74"/>
      <use x="155.810547" xlink:href="#DejaVuSans-Bold-111"/>
      <use x="224.511719" xlink:href="#DejaVuSans-Bold-117"/>
      <use x="295.703125" xlink:href="#DejaVuSans-Bold-114"/>
      <use x="345.019531" xlink:href="#DejaVuSans-Bold-110"/>
      <use x="416.210938" xlink:href="#DejaVuSans-Bold-101"/>
      <use x="484.033203" xlink:href="#DejaVuSans-Bold-121"/>
      <use x="549.21875" xlink:href="#DejaVuSans-Bold-115"/>
      <use x="608.740234" xlink:href="#DejaVuSans-Bold-32"/>
      <use x="643.554688" xlink:href="#DejaVuSans-Bold-50"/>
      <use x="713.134766" xlink:href="#DejaVuSans-Bold-50"/>
      <use x="782.714844" xlink:href="#DejaVuSans-Bold-107"/>
      <use x="849.21875" xlink:href="#DejaVuSans-Bold-87"/>
     </g>
    </g>
   </g>
   <g id="patch_86">
    <path d="M 53.40625 358.941176 
L 53.40625 199.058824 
" style="fill:none;stroke:#000000;stroke-linecap:square;stroke-linejoin:miter;stroke-width:0.8;"/>
   </g>
   <g id="patch_87">
    <path d="M 388.20625 358.941176 
L 388.20625 199.058824 
" style="fill:none;stroke:#000000;stroke-linecap:square;stroke-linejoin:miter;stroke-width:0.8;"/>
   </g>
   <g id="patch_88">
    <path d="M 53.40625 358.941176 
L 388.20625 358.941176 
" style="fill:none;stroke:#000000;stroke-linecap:square;stroke-linejoin:miter;stroke-width:0.8;"/>
   </g>
   <g id="patch_89">
    <path d="M 53.40625 199.058824 
L 388.20625 199.058824 
" style="fill:none;stroke:#000000;stroke-linecap:square;stroke-linejoin:miter;stroke-width:0.8;"/>
   </g>
   <g id="legend_2">
    <g id="patch_90">
     <path d="M 320.434375 215.657261 
L 340.434375 215.657261 
L 340.434375 208.657261 
L 320.434375 208.657261 
z
" style="fill:#45d281;opacity:0.8;"/>
    </g>
    <g id="text_30">
     <!-- EVs -->
     <g transform="translate(348.434375 215.657261)scale(0.1 -0.1)">
      <use xlink:href="#DejaVuSans-69"/>
      <use x="63.183594" xlink:href="#DejaVuSans-86"/>
      <use x="131.591797" xlink:href="#DejaVuSans-115"/>
     </g>
    </g>
    <g id="patch_91">
     <path d="M 320.434375 230.335386 
L 340.434375 230.335386 
L 340.434375 223.335386 
L 320.434375 223.335386 
z
" style="fill:#004a9c;opacity:0.6;"/>
    </g>
    <g id="text_31">
     <!-- Diesel -->
     <g transform="translate(348.434375 230.335386)scale(0.1 -0.1)">
      <use xlink:href="#DejaVuSans-68"/>
      <use x="77.001953" xlink:href="#DejaVuSans-105"/>
      <use x="104.785156" xlink:href="#DejaVuSans-101"/>
      <use x="166.308594" xlink:href="#DejaVuSans-115"/>
      <use x="218.408203" xlink:href="#DejaVuSans-101"/>
      <use x="279.931641" xlink:href="#DejaVuSans-108"/>
     </g>
    </g>
   </g>
  </g>
  <g id="axes_3">
   <g id="patch_92">
    <path d="M 53.40625 550.8 
L 388.20625 550.8 
L 388.20625 390.917647 
L 53.40625 390.917647 
z
" style="fill:#ffffff;"/>
   </g>
   <g id="patch_93">
    <path clip-path="url(#pd1e256a177)" d="M 68.624432 550.8 
L 84.643571 550.8 
L 84.643571 398.531092 
L 68.624432 398.531092 
z
" style="fill:#45d281;opacity:0.8;"/>
   </g>
   <g id="patch_94">
    <path clip-path="url(#pd1e256a177)" d="M 84.643571 550.8 
L 100.662709 550.8 
L 100.662709 493.783182 
L 84.643571 493.783182 
z
" style="fill:#45d281;opacity:0.8;"/>
   </g>
   <g id="patch_95">
    <path clip-path="url(#pd1e256a177)" d="M 100.662709 550.8 
L 116.681848 550.8 
L 116.681848 523.418484 
L 100.662709 523.418484 
z
" style="fill:#45d281;opacity:0.8;"/>
   </g>
   <g id="patch_96">
    <path clip-path="url(#pd1e256a177)" d="M 116.681848 550.8 
L 132.700987 550.8 
L 132.700987 540.025324 
L 116.681848 540.025324 
z
" style="fill:#45d281;opacity:0.8;"/>
   </g>
   <g id="patch_97">
    <path clip-path="url(#pd1e256a177)" d="M 132.700987 550.8 
L 148.720126 550.8 
L 148.720126 545.857488 
L 132.700987 545.857488 
z
" style="fill:#45d281;opacity:0.8;"/>
   </g>
   <g id="patch_98">
    <path clip-path="url(#pd1e256a177)" d="M 148.720126 550.8 
L 164.739264 550.8 
L 164.739264 549.930118 
L 148.720126 549.930118 
z
" style="fill:#45d281;opacity:0.8;"/>
   </g>
   <g id="patch_99">
    <path clip-path="url(#pd1e256a177)" d="M 164.739264 550.8 
L 180.758403 550.8 
L 180.758403 542.061639 
L 164.739264 542.061639 
z
" style="fill:#45d281;opacity:0.8;"/>
   </g>
   <g id="patch_100">
    <path clip-path="url(#pd1e256a177)" d="M 180.758403 550.8 
L 196.777542 550.8 
L 196.777542 475.060947 
L 180.758403 475.060947 
z
" style="fill:#45d281;opacity:0.8;"/>
   </g>
   <g id="patch_101">
    <path clip-path="url(#pd1e256a177)" d="M 196.777542 550.8 
L 212.796681 550.8 
L 212.796681 479.647598 
L 196.777542 479.647598 
z
" style="fill:#45d281;opacity:0.8;"/>
   </g>
   <g id="patch_102">
    <path clip-path="url(#pd1e256a177)" d="M 212.796681 550.8 
L 228.815819 550.8 
L 228.815819 511.635535 
L 212.796681 511.635535 
z
" style="fill:#45d281;opacity:0.8;"/>
   </g>
   <g id="patch_103">
    <path clip-path="url(#pd1e256a177)" d="M 228.815819 550.8 
L 244.834958 550.8 
L 244.834958 528.954097 
L 228.815819 528.954097 
z
" style="fill:#45d281;opacity:0.8;"/>
   </g>
   <g id="patch_104">
    <path clip-path="url(#pd1e256a177)" d="M 244.834958 550.8 
L 260.854097 550.8 
L 260.854097 538.54257 
L 244.834958 538.54257 
z
" style="fill:#45d281;opacity:0.8;"/>
   </g>
   <g id="patch_105">
    <path clip-path="url(#pd1e256a177)" d="M 260.854097 550.8 
L 276.873236 550.8 
L 276.873236 543.109451 
L 260.854097 543.109451 
z
" style="fill:#45d281;opacity:0.8;"/>
   </g>
   <g id="patch_106">
    <path clip-path="url(#pd1e256a177)" d="M 276.873236 550.8 
L 292.892374 550.8 
L 292.892374 544.552665 
L 276.873236 544.552665 
z
" style="fill:#45d281;opacity:0.8;"/>
   </g>
   <g id="patch_107">
    <path clip-path="url(#pd1e256a177)" d="M 292.892374 550.8 
L 308.911513 550.8 
L 308.911513 546.80645 
L 292.892374 546.80645 
z
" style="fill:#45d281;opacity:0.8;"/>
   </g>
   <g id="patch_108">
    <path clip-path="url(#pd1e256a177)" d="M 308.911513 550.8 
L 324.930652 550.8 
L 324.930652 537.138897 
L 308.911513 537.138897 
z
" style="fill:#45d281;opacity:0.8;"/>
   </g>
   <g id="patch_109">
    <path clip-path="url(#pd1e256a177)" d="M 324.930652 550.8 
L 340.949791 550.8 
L 340.949791 496.610299 
L 324.930652 496.610299 
z
" style="fill:#45d281;opacity:0.8;"/>
   </g>
   <g id="patch_110">
    <path clip-path="url(#pd1e256a177)" d="M 340.949791 550.8 
L 356.968929 550.8 
L 356.968929 528.420306 
L 340.949791 528.420306 
z
" style="fill:#45d281;opacity:0.8;"/>
   </g>
   <g id="patch_111">
    <path clip-path="url(#pd1e256a177)" d="M 356.968929 550.8 
L 372.988068 550.8 
L 372.988068 543.406002 
L 356.968929 543.406002 
z
" style="fill:#45d281;opacity:0.8;"/>
   </g>
   <g id="patch_112">
    <path clip-path="url(#pd1e256a177)" d="M 68.624432 550.8 
L 84.643571 550.8 
L 84.643571 540.835896 
L 68.624432 540.835896 
z
" style="fill:#004a9c;opacity:0.6;"/>
   </g>
   <g id="patch_113">
    <path clip-path="url(#pd1e256a177)" d="M 84.643571 550.8 
L 100.662709 550.8 
L 100.662709 545.956338 
L 84.643571 545.956338 
z
" style="fill:#004a9c;opacity:0.6;"/>
   </g>
   <g id="patch_114">
    <path clip-path="url(#pd1e256a177)" d="M 100.662709 550.8 
L 116.681848 550.8 
L 116.681848 549.080006 
L 100.662709 549.080006 
z
" style="fill:#004a9c;opacity:0.6;"/>
   </g>
   <g id="patch_115">
    <path clip-path="url(#pd1e256a177)" d="M 116.681848 550.8 
L 132.700987 550.8 
L 132.700987 550.127818 
L 116.681848 550.127818 
z
" style="fill:#004a9c;opacity:0.6;"/>
   </g>
   <g id="patch_116">
    <path clip-path="url(#pd1e256a177)" d="M 132.700987 550.8 
L 148.720126 550.8 
L 148.720126 550.62207 
L 132.700987 550.62207 
z
" style="fill:#004a9c;opacity:0.6;"/>
   </g>
   <g id="patch_117">
    <path clip-path="url(#pd1e256a177)" d="M 148.720126 550.8 
L 164.739264 550.8 
L 164.739264 550.76046 
L 148.720126 550.76046 
z
" style="fill:#004a9c;opacity:0.6;"/>
   </g>
   <g id="patch_118">
    <path clip-path="url(#pd1e256a177)" d="M 164.739264 550.8 
L 180.758403 550.8 
L 180.758403 550.305749 
L 164.739264 550.305749 
z
" style="fill:#004a9c;opacity:0.6;"/>
   </g>
   <g id="patch_119">
    <path clip-path="url(#pd1e256a177)" d="M 180.758403 550.8 
L 196.777542 550.8 
L 196.777542 549.080006 
L 180.758403 549.080006 
z
" style="fill:#004a9c;opacity:0.6;"/>
   </g>
   <g id="patch_120">
    <path clip-path="url(#pd1e256a177)" d="M 196.777542 550.8 
L 212.796681 550.8 
L 212.796681 548.664835 
L 196.777542 548.664835 
z
" style="fill:#004a9c;opacity:0.6;"/>
   </g>
   <g id="patch_121">
    <path clip-path="url(#pd1e256a177)" d="M 212.796681 550.8 
L 228.815819 550.8 
L 228.815819 547.300702 
L 212.796681 547.300702 
z
" style="fill:#004a9c;opacity:0.6;"/>
   </g>
   <g id="patch_122">
    <path clip-path="url(#pd1e256a177)" d="M 228.815819 550.8 
L 244.834958 550.8 
L 244.834958 546.351739 
L 228.815819 546.351739 
z
" style="fill:#004a9c;opacity:0.6;"/>
   </g>
   <g id="patch_123">
    <path clip-path="url(#pd1e256a177)" d="M 244.834958 550.8 
L 260.854097 550.8 
L 260.854097 545.916798 
L 244.834958 545.916798 
z
" style="fill:#004a9c;opacity:0.6;"/>
   </g>
   <g id="patch_124">
    <path clip-path="url(#pd1e256a177)" d="M 260.854097 550.8 
L 276.873236 550.8 
L 276.873236 547.913573 
L 260.854097 547.913573 
z
" style="fill:#004a9c;opacity:0.6;"/>
   </g>
   <g id="patch_125">
    <path clip-path="url(#pd1e256a177)" d="M 276.873236 550.8 
L 292.892374 550.8 
L 292.892374 549.416097 
L 276.873236 549.416097 
z
" style="fill:#004a9c;opacity:0.6;"/>
   </g>
   <g id="patch_126">
    <path clip-path="url(#pd1e256a177)" d="M 292.892374 550.8 
L 308.911513 550.8 
L 308.911513 547.399552 
L 292.892374 547.399552 
z
" style="fill:#004a9c;opacity:0.6;"/>
   </g>
   <g id="patch_127">
    <path clip-path="url(#pd1e256a177)" d="M 308.911513 550.8 
L 324.930652 550.8 
L 324.930652 521.303089 
L 308.911513 521.303089 
z
" style="fill:#004a9c;opacity:0.6;"/>
   </g>
   <g id="patch_128">
    <path clip-path="url(#pd1e256a177)" d="M 324.930652 550.8 
L 340.949791 550.8 
L 340.949791 487.318377 
L 324.930652 487.318377 
z
" style="fill:#004a9c;opacity:0.6;"/>
   </g>
   <g id="patch_129">
    <path clip-path="url(#pd1e256a177)" d="M 340.949791 550.8 
L 356.968929 550.8 
L 356.968929 502.976255 
L 340.949791 502.976255 
z
" style="fill:#004a9c;opacity:0.6;"/>
   </g>
   <g id="patch_130">
    <path clip-path="url(#pd1e256a177)" d="M 356.968929 550.8 
L 372.988068 550.8 
L 372.988068 534.469941 
L 356.968929 534.469941 
z
" style="fill:#004a9c;opacity:0.6;"/>
   </g>
   <g id="matplotlib.axis_5">
    <g id="xtick_17">
     <g id="line2d_26">
      <g>
       <use style="stroke:#000000;stroke-width:0.8;" x="68.624432" xlink:href="#m752dd69966" y="550.8"/>
      </g>
     </g>
     <g id="text_32">
      <!-- 0.0 -->
      <g transform="translate(60.672869 565.398438)scale(0.1 -0.1)">
       <use xlink:href="#DejaVuSans-48"/>
       <use x="63.623047" xlink:href="#DejaVuSans-46"/>
       <use x="95.410156" xlink:href="#DejaVuSans-48"/>
      </g>
     </g>
    </g>
    <g id="xtick_18">
     <g id="line2d_27">
      <g>
       <use style="stroke:#000000;stroke-width:0.8;" x="108.672279" xlink:href="#m752dd69966" y="550.8"/>
      </g>
     </g>
     <g id="text_33">
      <!-- 2.5 -->
      <g transform="translate(100.720716 565.398438)scale(0.1 -0.1)">
       <use xlink:href="#DejaVuSans-50"/>
       <use x="63.623047" xlink:href="#DejaVuSans-46"/>
       <use x="95.410156" xlink:href="#DejaVuSans-53"/>
      </g>
     </g>
    </g>
    <g id="xtick_19">
     <g id="line2d_28">
      <g>
       <use style="stroke:#000000;stroke-width:0.8;" x="148.720126" xlink:href="#m752dd69966" y="550.8"/>
      </g>
     </g>
     <g id="text_34">
      <!-- 5.0 -->
      <g transform="translate(140.768563 565.398438)scale(0.1 -0.1)">
       <use xlink:href="#DejaVuSans-53"/>
       <use x="63.623047" xlink:href="#DejaVuSans-46"/>
       <use x="95.410156" xlink:href="#DejaVuSans-48"/>
      </g>
     </g>
    </g>
    <g id="xtick_20">
     <g id="line2d_29">
      <g>
       <use style="stroke:#000000;stroke-width:0.8;" x="188.767972" xlink:href="#m752dd69966" y="550.8"/>
      </g>
     </g>
     <g id="text_35">
      <!-- 7.5 -->
      <g transform="translate(180.81641 565.398438)scale(0.1 -0.1)">
       <use xlink:href="#DejaVuSans-55"/>
       <use x="63.623047" xlink:href="#DejaVuSans-46"/>
       <use x="95.410156" xlink:href="#DejaVuSans-53"/>
      </g>
     </g>
    </g>
    <g id="xtick_21">
     <g id="line2d_30">
      <g>
       <use style="stroke:#000000;stroke-width:0.8;" x="228.815819" xlink:href="#m752dd69966" y="550.8"/>
      </g>
     </g>
     <g id="text_36">
      <!-- 10.0 -->
      <g transform="translate(217.683007 565.398438)scale(0.1 -0.1)">
       <use xlink:href="#DejaVuSans-49"/>
       <use x="63.623047" xlink:href="#DejaVuSans-48"/>
       <use x="127.246094" xlink:href="#DejaVuSans-46"/>
       <use x="159.033203" xlink:href="#DejaVuSans-48"/>
      </g>
     </g>
    </g>
    <g id="xtick_22">
     <g id="line2d_31">
      <g>
       <use style="stroke:#000000;stroke-width:0.8;" x="268.863666" xlink:href="#m752dd69966" y="550.8"/>
      </g>
     </g>
     <g id="text_37">
      <!-- 12.5 -->
      <g transform="translate(257.730854 565.398438)scale(0.1 -0.1)">
       <use xlink:href="#DejaVuSans-49"/>
       <use x="63.623047" xlink:href="#DejaVuSans-50"/>
       <use x="127.246094" xlink:href="#DejaVuSans-46"/>
       <use x="159.033203" xlink:href="#DejaVuSans-53"/>
      </g>
     </g>
    </g>
    <g id="xtick_23">
     <g id="line2d_32">
      <g>
       <use style="stroke:#000000;stroke-width:0.8;" x="308.911513" xlink:href="#m752dd69966" y="550.8"/>
      </g>
     </g>
     <g id="text_38">
      <!-- 15.0 -->
      <g transform="translate(297.778701 565.398438)scale(0.1 -0.1)">
       <use xlink:href="#DejaVuSans-49"/>
       <use x="63.623047" xlink:href="#DejaVuSans-53"/>
       <use x="127.246094" xlink:href="#DejaVuSans-46"/>
       <use x="159.033203" xlink:href="#DejaVuSans-48"/>
      </g>
     </g>
    </g>
    <g id="xtick_24">
     <g id="line2d_33">
      <g>
       <use style="stroke:#000000;stroke-width:0.8;" x="348.95936" xlink:href="#m752dd69966" y="550.8"/>
      </g>
     </g>
     <g id="text_39">
      <!-- 17.5 -->
      <g transform="translate(337.826548 565.398438)scale(0.1 -0.1)">
       <use xlink:href="#DejaVuSans-49"/>
       <use x="63.623047" xlink:href="#DejaVuSans-55"/>
       <use x="127.246094" xlink:href="#DejaVuSans-46"/>
       <use x="159.033203" xlink:href="#DejaVuSans-53"/>
      </g>
     </g>
    </g>
    <g id="text_40">
     <!-- Charging Time (hours) -->
     <g style="fill:#004a9c;" transform="translate(157.532813 579.076563)scale(0.1 -0.1)">
      <defs>
       <path d="M 67 4 
Q 61.8125 1.3125 56.203125 -0.046875 
Q 50.59375 -1.421875 44.484375 -1.421875 
Q 26.265625 -1.421875 15.625 8.765625 
Q 4.984375 18.953125 4.984375 36.375 
Q 4.984375 53.859375 15.625 64.03125 
Q 26.265625 74.21875 44.484375 74.21875 
Q 50.59375 74.21875 56.203125 72.84375 
Q 61.8125 71.484375 67 68.796875 
L 67 53.71875 
Q 61.765625 57.28125 56.6875 58.9375 
Q 51.609375 60.59375 46 60.59375 
Q 35.9375 60.59375 30.171875 54.140625 
Q 24.421875 47.703125 24.421875 36.375 
Q 24.421875 25.09375 30.171875 18.640625 
Q 35.9375 12.203125 46 12.203125 
Q 51.609375 12.203125 56.6875 13.859375 
Q 61.765625 15.53125 67 19.09375 
z
" id="DejaVuSans-Bold-67"/>
       <path d="M 63.375 33.296875 
L 63.375 0 
L 45.796875 0 
L 45.796875 5.421875 
L 45.796875 25.390625 
Q 45.796875 32.5625 45.484375 35.25 
Q 45.171875 37.9375 44.390625 39.203125 
Q 43.359375 40.921875 41.59375 41.875 
Q 39.84375 42.828125 37.59375 42.828125 
Q 32.125 42.828125 29 38.59375 
Q 25.875 34.375 25.875 26.90625 
L 25.875 0 
L 8.40625 0 
L 8.40625 75.984375 
L 25.875 75.984375 
L 25.875 46.6875 
Q 29.828125 51.46875 34.265625 53.734375 
Q 38.71875 56 44.09375 56 
Q 53.5625 56 58.46875 50.1875 
Q 63.375 44.390625 63.375 33.296875 
z
" id="DejaVuSans-Bold-104"/>
       <path d="M 32.90625 24.609375 
Q 27.4375 24.609375 24.671875 22.75 
Q 21.921875 20.90625 21.921875 17.28125 
Q 21.921875 13.96875 24.140625 12.078125 
Q 26.375 10.203125 30.328125 10.203125 
Q 35.25 10.203125 38.625 13.734375 
Q 42 17.28125 42 22.609375 
L 42 24.609375 
z
M 59.625 31.203125 
L 59.625 0 
L 42 0 
L 42 8.109375 
Q 38.484375 3.125 34.078125 0.84375 
Q 29.6875 -1.421875 23.390625 -1.421875 
Q 14.890625 -1.421875 9.59375 3.53125 
Q 4.296875 8.5 4.296875 16.40625 
Q 4.296875 26.03125 10.90625 30.515625 
Q 17.53125 35.015625 31.6875 35.015625 
L 42 35.015625 
L 42 36.375 
Q 42 40.53125 38.71875 42.453125 
Q 35.453125 44.390625 28.515625 44.390625 
Q 22.90625 44.390625 18.0625 43.265625 
Q 13.234375 42.140625 9.078125 39.890625 
L 9.078125 53.21875 
Q 14.703125 54.59375 20.359375 55.296875 
Q 26.03125 56 31.6875 56 
Q 46.484375 56 53.046875 50.171875 
Q 59.625 44.34375 59.625 31.203125 
z
" id="DejaVuSans-Bold-97"/>
       <path d="M 45.609375 9.28125 
Q 42 4.5 37.640625 2.25 
Q 33.296875 0 27.59375 0 
Q 17.578125 0 11.03125 7.875 
Q 4.5 15.765625 4.5 27.984375 
Q 4.5 40.234375 11.03125 48.0625 
Q 17.578125 55.90625 27.59375 55.90625 
Q 33.296875 55.90625 37.640625 53.65625 
Q 42 51.421875 45.609375 46.578125 
L 45.609375 54.6875 
L 63.1875 54.6875 
L 63.1875 5.515625 
Q 63.1875 -7.671875 54.859375 -14.625 
Q 46.53125 -21.578125 30.71875 -21.578125 
Q 25.59375 -21.578125 20.796875 -20.796875 
Q 16.015625 -20.015625 11.1875 -18.40625 
L 11.1875 -4.78125 
Q 15.765625 -7.421875 20.15625 -8.71875 
Q 24.5625 -10.015625 29 -10.015625 
Q 37.59375 -10.015625 41.59375 -6.25 
Q 45.609375 -2.484375 45.609375 5.515625 
z
M 34.078125 43.3125 
Q 28.65625 43.3125 25.625 39.296875 
Q 22.609375 35.296875 22.609375 27.984375 
Q 22.609375 20.453125 25.53125 16.578125 
Q 28.46875 12.703125 34.078125 12.703125 
Q 39.546875 12.703125 42.578125 16.703125 
Q 45.609375 20.703125 45.609375 27.984375 
Q 45.609375 35.296875 42.578125 39.296875 
Q 39.546875 43.3125 34.078125 43.3125 
z
" id="DejaVuSans-Bold-103"/>
       <path d="M 8.40625 54.6875 
L 25.875 54.6875 
L 25.875 0 
L 8.40625 0 
z
M 8.40625 75.984375 
L 25.875 75.984375 
L 25.875 61.71875 
L 8.40625 61.71875 
z
" id="DejaVuSans-Bold-105"/>
       <path d="M 0.484375 72.90625 
L 67.671875 72.90625 
L 67.671875 58.6875 
L 43.5 58.6875 
L 43.5 0 
L 24.703125 0 
L 24.703125 58.6875 
L 0.484375 58.6875 
z
" id="DejaVuSans-Bold-84"/>
       <path d="M 59.078125 45.609375 
Q 62.40625 50.6875 66.96875 53.34375 
Q 71.53125 56 77 56 
Q 86.421875 56 91.359375 50.1875 
Q 96.296875 44.390625 96.296875 33.296875 
L 96.296875 0 
L 78.71875 0 
L 78.71875 28.515625 
Q 78.765625 29.15625 78.78125 29.828125 
Q 78.8125 30.515625 78.8125 31.78125 
Q 78.8125 37.59375 77.09375 40.203125 
Q 75.390625 42.828125 71.578125 42.828125 
Q 66.609375 42.828125 63.890625 38.71875 
Q 61.1875 34.625 61.078125 26.859375 
L 61.078125 0 
L 43.5 0 
L 43.5 28.515625 
Q 43.5 37.59375 41.9375 40.203125 
Q 40.375 42.828125 36.375 42.828125 
Q 31.34375 42.828125 28.609375 38.703125 
Q 25.875 34.578125 25.875 26.90625 
L 25.875 0 
L 8.296875 0 
L 8.296875 54.6875 
L 25.875 54.6875 
L 25.875 46.6875 
Q 29.109375 51.3125 33.28125 53.65625 
Q 37.453125 56 42.484375 56 
Q 48.140625 56 52.484375 53.265625 
Q 56.84375 50.53125 59.078125 45.609375 
z
" id="DejaVuSans-Bold-109"/>
       <path d="M 37.703125 -13.1875 
L 23.1875 -13.1875 
Q 15.71875 -1.125 12.15625 9.734375 
Q 8.59375 20.609375 8.59375 31.296875 
Q 8.59375 42 12.171875 52.953125 
Q 15.765625 63.921875 23.1875 75.875 
L 37.703125 75.875 
Q 31.453125 64.3125 28.328125 53.25 
Q 25.203125 42.1875 25.203125 31.390625 
Q 25.203125 20.609375 28.296875 9.515625 
Q 31.390625 -1.5625 37.703125 -13.1875 
z
" id="DejaVuSans-Bold-40"/>
       <path d="M 8.015625 -13.1875 
Q 14.265625 -1.5625 17.390625 9.515625 
Q 20.515625 20.609375 20.515625 31.390625 
Q 20.515625 42.1875 17.390625 53.25 
Q 14.265625 64.3125 8.015625 75.875 
L 22.515625 75.875 
Q 29.9375 63.921875 33.515625 52.953125 
Q 37.109375 42 37.109375 31.296875 
Q 37.109375 20.609375 33.546875 9.734375 
Q 29.984375 -1.125 22.515625 -13.1875 
z
" id="DejaVuSans-Bold-41"/>
      </defs>
      <use xlink:href="#DejaVuSans-Bold-67"/>
      <use x="73.388672" xlink:href="#DejaVuSans-Bold-104"/>
      <use x="144.580078" xlink:href="#DejaVuSans-Bold-97"/>
      <use x="212.060547" xlink:href="#DejaVuSans-Bold-114"/>
      <use x="261.376953" xlink:href="#DejaVuSans-Bold-103"/>
      <use x="332.958984" xlink:href="#DejaVuSans-Bold-105"/>
      <use x="367.236328" xlink:href="#DejaVuSans-Bold-110"/>
      <use x="438.427734" xlink:href="#DejaVuSans-Bold-103"/>
      <use x="510.009766" xlink:href="#DejaVuSans-Bold-32"/>
      <use x="544.824219" xlink:href="#DejaVuSans-Bold-84"/>
      <use x="613.037109" xlink:href="#DejaVuSans-Bold-105"/>
      <use x="647.314453" xlink:href="#DejaVuSans-Bold-109"/>
      <use x="751.513672" xlink:href="#DejaVuSans-Bold-101"/>
      <use x="819.335938" xlink:href="#DejaVuSans-Bold-32"/>
      <use x="854.150391" xlink:href="#DejaVuSans-Bold-40"/>
      <use x="899.853516" xlink:href="#DejaVuSans-Bold-104"/>
      <use x="971.044922" xlink:href="#DejaVuSans-Bold-111"/>
      <use x="1039.746094" xlink:href="#DejaVuSans-Bold-117"/>
      <use x="1110.9375" xlink:href="#DejaVuSans-Bold-114"/>
      <use x="1160.253906" xlink:href="#DejaVuSans-Bold-115"/>
      <use x="1219.775391" xlink:href="#DejaVuSans-Bold-41"/>
     </g>
    </g>
   </g>
   <g id="matplotlib.axis_6">
    <g id="ytick_10">
     <g id="line2d_34">
      <g>
       <use style="stroke:#000000;stroke-width:0.8;" x="53.40625" xlink:href="#m38eb0b0966" y="550.8"/>
      </g>
     </g>
     <g id="text_41">
      <!-- 0 -->
      <g transform="translate(40.04375 554.599219)scale(0.1 -0.1)">
       <use xlink:href="#DejaVuSans-48"/>
      </g>
     </g>
    </g>
    <g id="ytick_11">
     <g id="line2d_35">
      <g>
       <use style="stroke:#000000;stroke-width:0.8;" x="53.40625" xlink:href="#m38eb0b0966" y="511.259905"/>
      </g>
     </g>
     <g id="text_42">
      <!-- 2000 -->
      <g transform="translate(20.95625 515.059123)scale(0.1 -0.1)">
       <use xlink:href="#DejaVuSans-50"/>
       <use x="63.623047" xlink:href="#DejaVuSans-48"/>
       <use x="127.246094" xlink:href="#DejaVuSans-48"/>
       <use x="190.869141" xlink:href="#DejaVuSans-48"/>
      </g>
     </g>
    </g>
    <g id="ytick_12">
     <g id="line2d_36">
      <g>
       <use style="stroke:#000000;stroke-width:0.8;" x="53.40625" xlink:href="#m38eb0b0966" y="471.719809"/>
      </g>
     </g>
     <g id="text_43">
      <!-- 4000 -->
      <g transform="translate(20.95625 475.519028)scale(0.1 -0.1)">
       <use xlink:href="#DejaVuSans-52"/>
       <use x="63.623047" xlink:href="#DejaVuSans-48"/>
       <use x="127.246094" xlink:href="#DejaVuSans-48"/>
       <use x="190.869141" xlink:href="#DejaVuSans-48"/>
      </g>
     </g>
    </g>
    <g id="ytick_13">
     <g id="line2d_37">
      <g>
       <use style="stroke:#000000;stroke-width:0.8;" x="53.40625" xlink:href="#m38eb0b0966" y="432.179714"/>
      </g>
     </g>
     <g id="text_44">
      <!-- 6000 -->
      <g transform="translate(20.95625 435.978932)scale(0.1 -0.1)">
       <use xlink:href="#DejaVuSans-54"/>
       <use x="63.623047" xlink:href="#DejaVuSans-48"/>
       <use x="127.246094" xlink:href="#DejaVuSans-48"/>
       <use x="190.869141" xlink:href="#DejaVuSans-48"/>
      </g>
     </g>
    </g>
    <g id="ytick_14">
     <g id="line2d_38">
      <g>
       <use style="stroke:#000000;stroke-width:0.8;" x="53.40625" xlink:href="#m38eb0b0966" y="392.639618"/>
      </g>
     </g>
     <g id="text_45">
      <!-- 8000 -->
      <g transform="translate(20.95625 396.438837)scale(0.1 -0.1)">
       <use xlink:href="#DejaVuSans-56"/>
       <use x="63.623047" xlink:href="#DejaVuSans-48"/>
       <use x="127.246094" xlink:href="#DejaVuSans-48"/>
       <use x="190.869141" xlink:href="#DejaVuSans-48"/>
      </g>
     </g>
    </g>
    <g id="text_46">
     <!-- # Journeys 45kW -->
     <g style="fill:#004a9c;" transform="translate(14.798438 518.833824)rotate(-90)scale(0.1 -0.1)">
      <defs>
       <path d="M 36.8125 57.421875 
L 16.21875 26.90625 
L 36.8125 26.90625 
z
M 33.6875 72.90625 
L 54.59375 72.90625 
L 54.59375 26.90625 
L 64.984375 26.90625 
L 64.984375 13.28125 
L 54.59375 13.28125 
L 54.59375 0 
L 36.8125 0 
L 36.8125 13.28125 
L 4.5 13.28125 
L 4.5 29.390625 
z
" id="DejaVuSans-Bold-52"/>
       <path d="M 10.59375 72.90625 
L 57.328125 72.90625 
L 57.328125 59.078125 
L 25.59375 59.078125 
L 25.59375 47.796875 
Q 27.734375 48.390625 29.90625 48.703125 
Q 32.078125 49.03125 34.421875 49.03125 
Q 47.75 49.03125 55.171875 42.359375 
Q 62.59375 35.6875 62.59375 23.78125 
Q 62.59375 11.96875 54.515625 5.265625 
Q 46.4375 -1.421875 32.078125 -1.421875 
Q 25.875 -1.421875 19.796875 -0.21875 
Q 13.71875 0.984375 7.71875 3.421875 
L 7.71875 18.21875 
Q 13.671875 14.796875 19.015625 13.078125 
Q 24.359375 11.375 29.109375 11.375 
Q 35.9375 11.375 39.859375 14.71875 
Q 43.796875 18.0625 43.796875 23.78125 
Q 43.796875 29.546875 39.859375 32.859375 
Q 35.9375 36.1875 29.109375 36.1875 
Q 25.046875 36.1875 20.453125 35.125 
Q 15.875 34.078125 10.59375 31.890625 
z
" id="DejaVuSans-Bold-53"/>
      </defs>
      <use xlink:href="#DejaVuSans-Bold-35"/>
      <use x="83.789062" xlink:href="#DejaVuSans-Bold-32"/>
      <use x="118.603516" xlink:href="#DejaVuSans-Bold-74"/>
      <use x="155.810547" xlink:href="#DejaVuSans-Bold-111"/>
      <use x="224.511719" xlink:href="#DejaVuSans-Bold-117"/>
      <use x="295.703125" xlink:href="#DejaVuSans-Bold-114"/>
      <use x="345.019531" xlink:href="#DejaVuSans-Bold-110"/>
      <use x="416.210938" xlink:href="#DejaVuSans-Bold-101"/>
      <use x="484.033203" xlink:href="#DejaVuSans-Bold-121"/>
      <use x="549.21875" xlink:href="#DejaVuSans-Bold-115"/>
      <use x="608.740234" xlink:href="#DejaVuSans-Bold-32"/>
      <use x="643.554688" xlink:href="#DejaVuSans-Bold-52"/>
      <use x="713.134766" xlink:href="#DejaVuSans-Bold-53"/>
      <use x="782.714844" xlink:href="#DejaVuSans-Bold-107"/>
      <use x="849.21875" xlink:href="#DejaVuSans-Bold-87"/>
     </g>
    </g>
   </g>
   <g id="patch_131">
    <path d="M 53.40625 550.8 
L 53.40625 390.917647 
" style="fill:none;stroke:#000000;stroke-linecap:square;stroke-linejoin:miter;stroke-width:0.8;"/>
   </g>
   <g id="patch_132">
    <path d="M 388.20625 550.8 
L 388.20625 390.917647 
" style="fill:none;stroke:#000000;stroke-linecap:square;stroke-linejoin:miter;stroke-width:0.8;"/>
   </g>
   <g id="patch_133">
    <path d="M 53.40625 550.8 
L 388.20625 550.8 
" style="fill:none;stroke:#000000;stroke-linecap:square;stroke-linejoin:miter;stroke-width:0.8;"/>
   </g>
   <g id="patch_134">
    <path d="M 53.40625 390.917647 
L 388.20625 390.917647 
" style="fill:none;stroke:#000000;stroke-linecap:square;stroke-linejoin:miter;stroke-width:0.8;"/>
   </g>
   <g id="legend_3">
    <g id="patch_135">
     <path d="M 320.434375 407.516085 
L 340.434375 407.516085 
L 340.434375 400.516085 
L 320.434375 400.516085 
z
" style="fill:#45d281;opacity:0.8;"/>
    </g>
    <g id="text_47">
     <!-- EVs -->
     <g transform="translate(348.434375 407.516085)scale(0.1 -0.1)">
      <use xlink:href="#DejaVuSans-69"/>
      <use x="63.183594" xlink:href="#DejaVuSans-86"/>
      <use x="131.591797" xlink:href="#DejaVuSans-115"/>
     </g>
    </g>
    <g id="patch_136">
     <path d="M 320.434375 422.19421 
L 340.434375 422.19421 
L 340.434375 415.19421 
L 320.434375 415.19421 
z
" style="fill:#004a9c;opacity:0.6;"/>
    </g>
    <g id="text_48">
     <!-- Diesel -->
     <g transform="translate(348.434375 422.19421)scale(0.1 -0.1)">
      <use xlink:href="#DejaVuSans-68"/>
      <use x="77.001953" xlink:href="#DejaVuSans-105"/>
      <use x="104.785156" xlink:href="#DejaVuSans-101"/>
      <use x="166.308594" xlink:href="#DejaVuSans-115"/>
      <use x="218.408203" xlink:href="#DejaVuSans-101"/>
      <use x="279.931641" xlink:href="#DejaVuSans-108"/>
     </g>
    </g>
   </g>
  </g>
 </g>
 <defs>
  <clipPath id="p7ff6500c5b">
   <rect height="159.882353" width="334.8" x="53.40625" y="7.2"/>
  </clipPath>
  <clipPath id="p7e7eb4096c">
   <rect height="159.882353" width="334.8" x="53.40625" y="199.058824"/>
  </clipPath>
  <clipPath id="pd1e256a177">
   <rect height="159.882353" width="334.8" x="53.40625" y="390.917647"/>
  </clipPath>
 </defs>
</svg>
